<svg width="933" height="324" viewBox="0 0 933 324" fill="none" xmlns="http://www.w3.org/2000/svg">
<path d="M62.4937 265.608V102.532C62.4937 47.0096 107.503 2 163.025 2H326.101V165.076C326.101 220.598 281.092 265.608 225.57 265.608H62.4937Z" fill="white" stroke="#234E52" stroke-width="4"/>
<mask id="path-2-outside-1" maskUnits="userSpaceOnUse" x="272" y="56" width="661" height="249" fill="black">
<rect fill="white" x="272" y="56" width="661" height="249"/>
<path d="M313.815 125.863C316.656 125.863 319.26 126.853 321.628 128.834C323.995 130.814 326.261 133.855 328.426 137.957L324.367 149.415C322.744 146.728 321.12 144.747 319.497 143.474C317.873 142.06 316.115 141.352 314.221 141.352C310.23 141.352 307.118 144.889 304.886 151.961C302.721 159.034 301.639 170.068 301.639 185.062C301.639 213.07 305.833 227.074 314.221 227.074C316.115 227.074 317.84 226.438 319.395 225.164C320.951 223.75 322.608 221.699 324.367 219.011L328.629 230.681C324.299 238.886 319.395 242.988 313.916 242.988C307.084 242.988 301.707 238.037 297.783 228.135C293.928 218.233 292 203.946 292 185.274C292 173.109 292.879 162.571 294.638 153.659C296.464 144.747 299.001 137.887 302.248 133.077C305.562 128.268 309.418 125.863 313.815 125.863Z"/>
<path d="M374.204 181.03C374.204 184.001 374.137 187.325 374.001 191.003H342.953C343.224 204.017 344.475 213.424 346.708 219.223C348.94 224.882 351.984 227.711 355.839 227.711C358.274 227.711 360.439 226.933 362.333 225.377C364.295 223.821 366.324 221.274 368.421 217.738L372.479 228.984C367.474 238.32 361.792 242.988 355.433 242.988C348.466 242.988 343.055 237.966 339.199 227.923C335.411 217.738 333.517 203.522 333.517 185.274C333.517 167.026 335.344 152.598 338.996 141.989C342.649 131.238 347.722 125.863 354.216 125.863C360.642 125.863 365.58 130.672 369.03 140.291C372.479 149.769 374.204 163.349 374.204 181.03ZM365.377 175.302C365.377 151.961 361.69 140.291 354.317 140.291C350.935 140.291 348.263 143.262 346.302 149.203C344.34 155.003 343.224 164.48 342.953 177.636H365.377V175.302Z"/>
<path d="M400.701 125.863C406.856 125.863 412.335 130.107 417.138 138.594L413.282 149.84C411.118 146.728 409.089 144.394 407.195 142.838C405.301 141.282 403.305 140.504 401.208 140.504C398.435 140.504 396.236 141.918 394.613 144.747C393.057 147.435 392.279 151.183 392.279 155.993C392.279 160.661 393.023 164.339 394.512 167.026C396.067 169.714 398.976 172.472 403.237 175.302C408.581 178.838 412.471 183.152 414.906 188.245C417.341 193.337 418.559 200.339 418.559 209.251C418.559 219.718 416.732 227.994 413.079 234.076C409.427 240.017 404.861 242.988 399.382 242.988C392.144 242.988 386.022 237.966 381.017 227.923L385.684 217.314C389.946 224.528 394.444 228.135 399.179 228.135C402.155 228.135 404.556 226.579 406.383 223.467C408.209 220.355 409.122 216.041 409.122 210.524C409.122 206.563 408.784 203.38 408.108 200.976C407.499 198.571 406.349 196.449 404.658 194.61C403.035 192.63 400.633 190.579 397.454 188.457C392.381 184.92 388.728 180.677 386.496 175.726C384.264 170.775 383.148 164.48 383.148 156.842C383.148 150.901 383.892 145.596 385.38 140.928C386.868 136.26 388.931 132.582 391.569 129.894C394.207 127.207 397.251 125.863 400.701 125.863Z"/>
<path d="M462.789 214.768C462.789 219.294 463.093 222.689 463.702 224.952C464.311 227.074 465.258 228.701 466.543 229.832L464.615 242.776C461.977 241.927 459.914 240.229 458.426 237.683C456.938 235.137 455.89 231.247 455.281 226.013C451.831 237.33 446.994 242.988 440.771 242.988C436.036 242.988 432.282 239.947 429.509 233.864C426.735 227.64 425.349 219.365 425.349 209.039C425.349 197.156 427.209 188.103 430.929 181.879C434.65 175.655 439.96 172.543 446.859 172.543H453.759V162.995C453.759 155.215 452.981 149.627 451.425 146.232C449.937 142.696 447.468 140.928 444.018 140.928C440.298 140.928 435.969 142.908 431.031 146.869L428.799 133.502C434.751 128.409 440.298 125.863 445.439 125.863C457.006 125.863 462.789 137.957 462.789 162.146V214.768ZM442.902 228.559C447.637 228.559 451.256 222.76 453.759 211.16V184.85H447.874C439.08 184.85 434.683 192.559 434.683 207.978C434.683 214.626 435.394 219.718 436.814 223.255C438.235 226.791 440.264 228.559 442.902 228.559Z"/>
<path d="M501.166 126.075C502.925 126.075 504.447 126.499 505.732 127.348L504.21 145.808C502.925 144.959 501.538 144.535 500.05 144.535C497.074 144.535 494.639 147.01 492.745 151.961C490.919 156.912 489.464 164.48 488.382 174.665V240.229H479.25V128.621H487.164L487.875 150.688C490.513 134.28 494.943 126.075 501.166 126.075Z"/>
<path d="M572.966 240.229H563.936L561.805 174.241C560.858 144.676 560.351 124.307 560.283 113.132L546.89 223.679H538.062L524.06 113.132C524.128 125.439 523.756 145.95 522.944 174.665L520.915 240.229H511.986L517.363 94.2477H529.641L542.628 202.249L555.108 94.2477H567.588L572.966 240.229Z"/>
<path d="M624.199 181.03C624.199 184.001 624.131 187.325 623.996 191.003H592.948C593.219 204.017 594.47 213.424 596.702 219.223C598.934 224.882 601.978 227.711 605.834 227.711C608.269 227.711 610.434 226.933 612.328 225.377C614.289 223.821 616.319 221.274 618.416 217.738L622.474 228.984C617.469 238.32 611.787 242.988 605.428 242.988C598.461 242.988 593.05 237.966 589.194 227.923C585.406 217.738 583.512 203.522 583.512 185.274C583.512 167.026 585.338 152.598 588.991 141.989C592.644 131.238 597.717 125.863 604.211 125.863C610.637 125.863 615.575 130.672 619.024 140.291C622.474 149.769 624.199 163.349 624.199 181.03ZM615.372 175.302C615.372 151.961 611.685 140.291 604.312 140.291C600.93 140.291 598.258 143.262 596.296 149.203C594.335 155.003 593.219 164.48 592.948 177.636H615.372V175.302Z"/>
<path d="M660.741 125.863C665.002 125.863 668.317 128.834 670.684 134.775C673.119 140.574 674.337 148.637 674.337 158.963V240.229H665.205V161.297C665.205 154.083 664.63 148.92 663.48 145.808C662.33 142.555 660.571 140.928 658.204 140.928C653.74 140.928 649.681 147.576 646.028 160.873V240.229H636.896V128.621H644.811L645.521 145.172C649.647 132.299 654.72 125.863 660.741 125.863Z"/>
<path d="M727.843 181.03C727.843 184.001 727.776 187.325 727.64 191.003H696.592C696.863 204.017 698.114 213.424 700.347 219.223C702.579 224.882 705.623 227.711 709.478 227.711C711.913 227.711 714.078 226.933 715.972 225.377C717.934 223.821 719.963 221.274 722.06 217.738L726.118 228.984C721.113 238.32 715.431 242.988 709.072 242.988C702.105 242.988 696.694 237.966 692.838 227.923C689.05 217.738 687.156 203.522 687.156 185.274C687.156 167.026 688.983 152.598 692.635 141.989C696.288 131.238 701.361 125.863 707.855 125.863C714.281 125.863 719.219 130.672 722.669 140.291C726.118 149.769 727.843 163.349 727.843 181.03ZM719.016 175.302C719.016 151.961 715.329 140.291 707.956 140.291C704.574 140.291 701.902 143.262 699.941 149.203C697.979 155.003 696.863 164.48 696.592 177.636H719.016V175.302Z"/>
<path d="M779.706 132.653C776.797 135.058 772.299 136.26 766.211 136.26C771.893 142.201 774.734 151.961 774.734 165.541C774.734 176.716 773.043 185.769 769.661 192.701C766.346 199.49 761.814 202.885 756.065 202.885C753.9 202.885 751.939 202.178 750.18 200.763C748.286 203.593 747.339 207.2 747.339 211.585C747.339 218.233 749.571 221.557 754.035 221.557H761.036C766.313 221.557 770.507 224.386 773.618 230.045C776.73 235.561 778.285 242.634 778.285 251.263C778.285 261.731 776.358 269.935 772.502 275.876C768.646 281.959 762.998 285 755.557 285C747.846 285 742.367 282.242 739.12 276.725C735.941 271.208 734.351 262.792 734.351 251.475H742.57C742.57 256.143 742.942 259.821 743.686 262.509C744.498 265.338 745.817 267.389 747.643 268.662C749.537 270.076 752.209 270.784 755.659 270.784C760.462 270.784 763.911 269.228 766.008 266.116C768.105 263.004 769.154 258.548 769.154 252.748C769.154 247.373 768.274 243.271 766.516 240.442C764.825 237.613 762.389 236.198 759.21 236.198H753.224C748.556 236.198 745.073 234.359 742.773 230.681C740.473 226.862 739.323 221.84 739.323 215.616C739.323 208.402 741.183 201.966 744.904 196.308C742.063 192.913 739.932 188.669 738.511 183.577C737.159 178.343 736.482 172.048 736.482 164.692C736.482 153.093 738.241 143.757 741.758 136.684C745.276 129.612 749.909 126.075 755.659 126.075C761.003 126.075 765.129 125.297 768.038 123.741C771.014 122.185 774.058 119.78 777.169 116.527L779.706 132.653ZM755.76 139.443C752.446 139.443 749.909 141.635 748.151 146.02C746.459 150.264 745.614 156.488 745.614 164.692C745.614 172.614 746.493 178.838 748.252 183.364C750.078 187.75 752.581 189.942 755.76 189.942C762.457 189.942 765.805 181.455 765.805 164.48C765.805 156.276 764.96 150.052 763.269 145.808C761.578 141.564 759.075 139.443 755.76 139.443Z"/>
<path d="M819.599 214.768C819.599 219.294 819.903 222.689 820.512 224.952C821.121 227.074 822.068 228.701 823.353 229.832L821.425 242.776C818.787 241.927 816.724 240.229 815.236 237.683C813.748 235.137 812.699 231.247 812.091 226.013C808.641 237.33 803.804 242.988 797.581 242.988C792.846 242.988 789.092 239.947 786.319 233.864C783.545 227.64 782.159 219.365 782.159 209.039C782.159 197.156 784.019 188.103 787.739 181.879C791.459 175.655 796.769 172.543 803.669 172.543H810.569V162.995C810.569 155.215 809.791 149.627 808.235 146.232C806.747 142.696 804.278 140.928 800.828 140.928C797.108 140.928 792.778 142.908 787.841 146.869L785.608 133.502C791.561 128.409 797.108 125.863 802.248 125.863C813.815 125.863 819.599 137.957 819.599 162.146V214.768ZM799.712 228.559C804.447 228.559 808.066 222.76 810.569 211.16V184.85H804.684C795.89 184.85 791.493 192.559 791.493 207.978C791.493 214.626 792.204 219.718 793.624 223.255C795.045 226.791 797.074 228.559 799.712 228.559Z"/>
<path d="M861.325 235.349C857.942 240.442 854.188 242.988 850.062 242.988C845.733 242.988 842.384 240.371 840.017 235.137C837.717 229.903 836.567 222.548 836.567 213.07V143.05H828.957V128.621H836.567V102.947L845.699 100.613V128.621H857.469L856.454 143.05H845.699V212.858C845.699 222.477 847.627 227.286 851.482 227.286C852.632 227.286 853.681 226.933 854.628 226.225C855.643 225.518 856.759 224.457 857.976 223.043L861.325 235.349Z"/>
<path d="M894.518 235.349C891.136 240.442 887.382 242.988 883.256 242.988C878.927 242.988 875.578 240.371 873.211 235.137C870.911 229.903 869.761 222.548 869.761 213.07V143.05H862.151V128.621H869.761V102.947L878.893 100.613V128.621H890.663L889.648 143.05H878.893V212.858C878.893 222.477 880.821 227.286 884.676 227.286C885.826 227.286 886.875 226.933 887.822 226.225C888.836 225.518 889.953 224.457 891.17 223.043L894.518 235.349Z"/>
<path d="M911.579 128.621V240.229H902.448V128.621H911.579ZM907.014 76C908.772 76 910.193 77.2024 911.275 79.6071C912.425 82.0119 913 84.9824 913 88.5188C913 92.0552 912.459 95.0257 911.377 97.4305C910.294 99.6937 908.84 100.825 907.014 100.825C905.255 100.825 903.801 99.6937 902.651 97.4305C901.568 95.0257 901.027 92.0552 901.027 88.5188C901.027 84.9824 901.568 82.0119 902.651 79.6071C903.801 77.2024 905.255 76 907.014 76Z"/>
</mask>
<path d="M313.815 125.863C316.656 125.863 319.26 126.853 321.628 128.834C323.995 130.814 326.261 133.855 328.426 137.957L324.367 149.415C322.744 146.728 321.12 144.747 319.497 143.474C317.873 142.06 316.115 141.352 314.221 141.352C310.23 141.352 307.118 144.889 304.886 151.961C302.721 159.034 301.639 170.068 301.639 185.062C301.639 213.07 305.833 227.074 314.221 227.074C316.115 227.074 317.84 226.438 319.395 225.164C320.951 223.75 322.608 221.699 324.367 219.011L328.629 230.681C324.299 238.886 319.395 242.988 313.916 242.988C307.084 242.988 301.707 238.037 297.783 228.135C293.928 218.233 292 203.946 292 185.274C292 173.109 292.879 162.571 294.638 153.659C296.464 144.747 299.001 137.887 302.248 133.077C305.562 128.268 309.418 125.863 313.815 125.863Z" stroke="#234E52" stroke-width="40" mask="url(#path-2-outside-1)"/>
<path d="M374.204 181.03C374.204 184.001 374.137 187.325 374.001 191.003H342.953C343.224 204.017 344.475 213.424 346.708 219.223C348.94 224.882 351.984 227.711 355.839 227.711C358.274 227.711 360.439 226.933 362.333 225.377C364.295 223.821 366.324 221.274 368.421 217.738L372.479 228.984C367.474 238.32 361.792 242.988 355.433 242.988C348.466 242.988 343.055 237.966 339.199 227.923C335.411 217.738 333.517 203.522 333.517 185.274C333.517 167.026 335.344 152.598 338.996 141.989C342.649 131.238 347.722 125.863 354.216 125.863C360.642 125.863 365.58 130.672 369.03 140.291C372.479 149.769 374.204 163.349 374.204 181.03ZM365.377 175.302C365.377 151.961 361.69 140.291 354.317 140.291C350.935 140.291 348.263 143.262 346.302 149.203C344.34 155.003 343.224 164.48 342.953 177.636H365.377V175.302Z" stroke="#234E52" stroke-width="40" mask="url(#path-2-outside-1)"/>
<path d="M400.701 125.863C406.856 125.863 412.335 130.107 417.138 138.594L413.282 149.84C411.118 146.728 409.089 144.394 407.195 142.838C405.301 141.282 403.305 140.504 401.208 140.504C398.435 140.504 396.236 141.918 394.613 144.747C393.057 147.435 392.279 151.183 392.279 155.993C392.279 160.661 393.023 164.339 394.512 167.026C396.067 169.714 398.976 172.472 403.237 175.302C408.581 178.838 412.471 183.152 414.906 188.245C417.341 193.337 418.559 200.339 418.559 209.251C418.559 219.718 416.732 227.994 413.079 234.076C409.427 240.017 404.861 242.988 399.382 242.988C392.144 242.988 386.022 237.966 381.017 227.923L385.684 217.314C389.946 224.528 394.444 228.135 399.179 228.135C402.155 228.135 404.556 226.579 406.383 223.467C408.209 220.355 409.122 216.041 409.122 210.524C409.122 206.563 408.784 203.38 408.108 200.976C407.499 198.571 406.349 196.449 404.658 194.61C403.035 192.63 400.633 190.579 397.454 188.457C392.381 184.92 388.728 180.677 386.496 175.726C384.264 170.775 383.148 164.48 383.148 156.842C383.148 150.901 383.892 145.596 385.38 140.928C386.868 136.26 388.931 132.582 391.569 129.894C394.207 127.207 397.251 125.863 400.701 125.863Z" stroke="#234E52" stroke-width="40" mask="url(#path-2-outside-1)"/>
<path d="M462.789 214.768C462.789 219.294 463.093 222.689 463.702 224.952C464.311 227.074 465.258 228.701 466.543 229.832L464.615 242.776C461.977 241.927 459.914 240.229 458.426 237.683C456.938 235.137 455.89 231.247 455.281 226.013C451.831 237.33 446.994 242.988 440.771 242.988C436.036 242.988 432.282 239.947 429.509 233.864C426.735 227.64 425.349 219.365 425.349 209.039C425.349 197.156 427.209 188.103 430.929 181.879C434.65 175.655 439.96 172.543 446.859 172.543H453.759V162.995C453.759 155.215 452.981 149.627 451.425 146.232C449.937 142.696 447.468 140.928 444.018 140.928C440.298 140.928 435.969 142.908 431.031 146.869L428.799 133.502C434.751 128.409 440.298 125.863 445.439 125.863C457.006 125.863 462.789 137.957 462.789 162.146V214.768ZM442.902 228.559C447.637 228.559 451.256 222.76 453.759 211.16V184.85H447.874C439.08 184.85 434.683 192.559 434.683 207.978C434.683 214.626 435.394 219.718 436.814 223.255C438.235 226.791 440.264 228.559 442.902 228.559Z" stroke="#234E52" stroke-width="40" mask="url(#path-2-outside-1)"/>
<path d="M501.166 126.075C502.925 126.075 504.447 126.499 505.732 127.348L504.21 145.808C502.925 144.959 501.538 144.535 500.05 144.535C497.074 144.535 494.639 147.01 492.745 151.961C490.919 156.912 489.464 164.48 488.382 174.665V240.229H479.25V128.621H487.164L487.875 150.688C490.513 134.28 494.943 126.075 501.166 126.075Z" stroke="#234E52" stroke-width="40" mask="url(#path-2-outside-1)"/>
<path d="M572.966 240.229H563.936L561.805 174.241C560.858 144.676 560.351 124.307 560.283 113.132L546.89 223.679H538.062L524.06 113.132C524.128 125.439 523.756 145.95 522.944 174.665L520.915 240.229H511.986L517.363 94.2477H529.641L542.628 202.249L555.108 94.2477H567.588L572.966 240.229Z" stroke="#234E52" stroke-width="40" mask="url(#path-2-outside-1)"/>
<path d="M624.199 181.03C624.199 184.001 624.131 187.325 623.996 191.003H592.948C593.219 204.017 594.47 213.424 596.702 219.223C598.934 224.882 601.978 227.711 605.834 227.711C608.269 227.711 610.434 226.933 612.328 225.377C614.289 223.821 616.319 221.274 618.416 217.738L622.474 228.984C617.469 238.32 611.787 242.988 605.428 242.988C598.461 242.988 593.05 237.966 589.194 227.923C585.406 217.738 583.512 203.522 583.512 185.274C583.512 167.026 585.338 152.598 588.991 141.989C592.644 131.238 597.717 125.863 604.211 125.863C610.637 125.863 615.575 130.672 619.024 140.291C622.474 149.769 624.199 163.349 624.199 181.03ZM615.372 175.302C615.372 151.961 611.685 140.291 604.312 140.291C600.93 140.291 598.258 143.262 596.296 149.203C594.335 155.003 593.219 164.48 592.948 177.636H615.372V175.302Z" stroke="#234E52" stroke-width="40" mask="url(#path-2-outside-1)"/>
<path d="M660.741 125.863C665.002 125.863 668.317 128.834 670.684 134.775C673.119 140.574 674.337 148.637 674.337 158.963V240.229H665.205V161.297C665.205 154.083 664.63 148.92 663.48 145.808C662.33 142.555 660.571 140.928 658.204 140.928C653.74 140.928 649.681 147.576 646.028 160.873V240.229H636.896V128.621H644.811L645.521 145.172C649.647 132.299 654.72 125.863 660.741 125.863Z" stroke="#234E52" stroke-width="40" mask="url(#path-2-outside-1)"/>
<path d="M727.843 181.03C727.843 184.001 727.776 187.325 727.64 191.003H696.592C696.863 204.017 698.114 213.424 700.347 219.223C702.579 224.882 705.623 227.711 709.478 227.711C711.913 227.711 714.078 226.933 715.972 225.377C717.934 223.821 719.963 221.274 722.06 217.738L726.118 228.984C721.113 238.32 715.431 242.988 709.072 242.988C702.105 242.988 696.694 237.966 692.838 227.923C689.05 217.738 687.156 203.522 687.156 185.274C687.156 167.026 688.983 152.598 692.635 141.989C696.288 131.238 701.361 125.863 707.855 125.863C714.281 125.863 719.219 130.672 722.669 140.291C726.118 149.769 727.843 163.349 727.843 181.03ZM719.016 175.302C719.016 151.961 715.329 140.291 707.956 140.291C704.574 140.291 701.902 143.262 699.941 149.203C697.979 155.003 696.863 164.48 696.592 177.636H719.016V175.302Z" stroke="#234E52" stroke-width="40" mask="url(#path-2-outside-1)"/>
<path d="M779.706 132.653C776.797 135.058 772.299 136.26 766.211 136.26C771.893 142.201 774.734 151.961 774.734 165.541C774.734 176.716 773.043 185.769 769.661 192.701C766.346 199.49 761.814 202.885 756.065 202.885C753.9 202.885 751.939 202.178 750.18 200.763C748.286 203.593 747.339 207.2 747.339 211.585C747.339 218.233 749.571 221.557 754.035 221.557H761.036C766.313 221.557 770.507 224.386 773.618 230.045C776.73 235.561 778.285 242.634 778.285 251.263C778.285 261.731 776.358 269.935 772.502 275.876C768.646 281.959 762.998 285 755.557 285C747.846 285 742.367 282.242 739.12 276.725C735.941 271.208 734.351 262.792 734.351 251.475H742.57C742.57 256.143 742.942 259.821 743.686 262.509C744.498 265.338 745.817 267.389 747.643 268.662C749.537 270.076 752.209 270.784 755.659 270.784C760.462 270.784 763.911 269.228 766.008 266.116C768.105 263.004 769.154 258.548 769.154 252.748C769.154 247.373 768.274 243.271 766.516 240.442C764.825 237.613 762.389 236.198 759.21 236.198H753.224C748.556 236.198 745.073 234.359 742.773 230.681C740.473 226.862 739.323 221.84 739.323 215.616C739.323 208.402 741.183 201.966 744.904 196.308C742.063 192.913 739.932 188.669 738.511 183.577C737.159 178.343 736.482 172.048 736.482 164.692C736.482 153.093 738.241 143.757 741.758 136.684C745.276 129.612 749.909 126.075 755.659 126.075C761.003 126.075 765.129 125.297 768.038 123.741C771.014 122.185 774.058 119.78 777.169 116.527L779.706 132.653ZM755.76 139.443C752.446 139.443 749.909 141.635 748.151 146.02C746.459 150.264 745.614 156.488 745.614 164.692C745.614 172.614 746.493 178.838 748.252 183.364C750.078 187.75 752.581 189.942 755.76 189.942C762.457 189.942 765.805 181.455 765.805 164.48C765.805 156.276 764.96 150.052 763.269 145.808C761.578 141.564 759.075 139.443 755.76 139.443Z" stroke="#234E52" stroke-width="40" mask="url(#path-2-outside-1)"/>
<path d="M819.599 214.768C819.599 219.294 819.903 222.689 820.512 224.952C821.121 227.074 822.068 228.701 823.353 229.832L821.425 242.776C818.787 241.927 816.724 240.229 815.236 237.683C813.748 235.137 812.699 231.247 812.091 226.013C808.641 237.33 803.804 242.988 797.581 242.988C792.846 242.988 789.092 239.947 786.319 233.864C783.545 227.64 782.159 219.365 782.159 209.039C782.159 197.156 784.019 188.103 787.739 181.879C791.459 175.655 796.769 172.543 803.669 172.543H810.569V162.995C810.569 155.215 809.791 149.627 808.235 146.232C806.747 142.696 804.278 140.928 800.828 140.928C797.108 140.928 792.778 142.908 787.841 146.869L785.608 133.502C791.561 128.409 797.108 125.863 802.248 125.863C813.815 125.863 819.599 137.957 819.599 162.146V214.768ZM799.712 228.559C804.447 228.559 808.066 222.76 810.569 211.16V184.85H804.684C795.89 184.85 791.493 192.559 791.493 207.978C791.493 214.626 792.204 219.718 793.624 223.255C795.045 226.791 797.074 228.559 799.712 228.559Z" stroke="#234E52" stroke-width="40" mask="url(#path-2-outside-1)"/>
<path d="M861.325 235.349C857.942 240.442 854.188 242.988 850.062 242.988C845.733 242.988 842.384 240.371 840.017 235.137C837.717 229.903 836.567 222.548 836.567 213.07V143.05H828.957V128.621H836.567V102.947L845.699 100.613V128.621H857.469L856.454 143.05H845.699V212.858C845.699 222.477 847.627 227.286 851.482 227.286C852.632 227.286 853.681 226.933 854.628 226.225C855.643 225.518 856.759 224.457 857.976 223.043L861.325 235.349Z" stroke="#234E52" stroke-width="40" mask="url(#path-2-outside-1)"/>
<path d="M894.518 235.349C891.136 240.442 887.382 242.988 883.256 242.988C878.927 242.988 875.578 240.371 873.211 235.137C870.911 229.903 869.761 222.548 869.761 213.07V143.05H862.151V128.621H869.761V102.947L878.893 100.613V128.621H890.663L889.648 143.05H878.893V212.858C878.893 222.477 880.821 227.286 884.676 227.286C885.826 227.286 886.875 226.933 887.822 226.225C888.836 225.518 889.953 224.457 891.17 223.043L894.518 235.349Z" stroke="#234E52" stroke-width="40" mask="url(#path-2-outside-1)"/>
<path d="M911.579 128.621V240.229H902.448V128.621H911.579ZM907.014 76C908.772 76 910.193 77.2024 911.275 79.6071C912.425 82.0119 913 84.9824 913 88.5188C913 92.0552 912.459 95.0257 911.377 97.4305C910.294 99.6937 908.84 100.825 907.014 100.825C905.255 100.825 903.801 99.6937 902.651 97.4305C901.568 95.0257 901.027 92.0552 901.027 88.5188C901.027 84.9824 901.568 82.0119 902.651 79.6071C903.801 77.2024 905.255 76 907.014 76Z" stroke="#234E52" stroke-width="40" mask="url(#path-2-outside-1)"/>
<mask id="path-3-outside-2" maskUnits="userSpaceOnUse" x="276" y="60" width="653" height="241" fill="black">
<rect fill="white" x="276" y="60" width="653" height="241"/>
<path d="M313.815 125.863C316.656 125.863 319.26 126.853 321.628 128.834C323.995 130.814 326.261 133.855 328.426 137.957L324.367 149.415C322.744 146.728 321.12 144.747 319.497 143.474C317.873 142.06 316.115 141.352 314.221 141.352C310.23 141.352 307.118 144.889 304.886 151.961C302.721 159.034 301.639 170.068 301.639 185.062C301.639 213.07 305.833 227.074 314.221 227.074C316.115 227.074 317.84 226.438 319.395 225.164C320.951 223.75 322.608 221.699 324.367 219.011L328.629 230.681C324.299 238.886 319.395 242.988 313.916 242.988C307.084 242.988 301.707 238.037 297.783 228.135C293.928 218.233 292 203.946 292 185.274C292 173.109 292.879 162.571 294.638 153.659C296.464 144.747 299.001 137.887 302.248 133.077C305.562 128.268 309.418 125.863 313.815 125.863Z"/>
<path d="M374.204 181.03C374.204 184.001 374.137 187.325 374.001 191.003H342.953C343.224 204.017 344.475 213.424 346.708 219.223C348.94 224.882 351.984 227.711 355.839 227.711C358.274 227.711 360.439 226.933 362.333 225.377C364.295 223.821 366.324 221.274 368.421 217.738L372.479 228.984C367.474 238.32 361.792 242.988 355.433 242.988C348.466 242.988 343.055 237.966 339.199 227.923C335.411 217.738 333.517 203.522 333.517 185.274C333.517 167.026 335.344 152.598 338.996 141.989C342.649 131.238 347.722 125.863 354.216 125.863C360.642 125.863 365.58 130.672 369.03 140.291C372.479 149.769 374.204 163.349 374.204 181.03ZM365.377 175.302C365.377 151.961 361.69 140.291 354.317 140.291C350.935 140.291 348.263 143.262 346.302 149.203C344.34 155.003 343.224 164.48 342.953 177.636H365.377V175.302Z"/>
<path d="M400.701 125.863C406.856 125.863 412.335 130.107 417.138 138.594L413.282 149.84C411.118 146.728 409.089 144.394 407.195 142.838C405.301 141.282 403.305 140.504 401.208 140.504C398.435 140.504 396.236 141.918 394.613 144.747C393.057 147.435 392.279 151.183 392.279 155.993C392.279 160.661 393.023 164.339 394.512 167.026C396.067 169.714 398.976 172.472 403.237 175.302C408.581 178.838 412.471 183.152 414.906 188.245C417.341 193.337 418.559 200.339 418.559 209.251C418.559 219.718 416.732 227.994 413.079 234.076C409.427 240.017 404.861 242.988 399.382 242.988C392.144 242.988 386.022 237.966 381.017 227.923L385.684 217.314C389.946 224.528 394.444 228.135 399.179 228.135C402.155 228.135 404.556 226.579 406.383 223.467C408.209 220.355 409.122 216.041 409.122 210.524C409.122 206.563 408.784 203.38 408.108 200.976C407.499 198.571 406.349 196.449 404.658 194.61C403.035 192.63 400.633 190.579 397.454 188.457C392.381 184.92 388.728 180.677 386.496 175.726C384.264 170.775 383.148 164.48 383.148 156.842C383.148 150.901 383.892 145.596 385.38 140.928C386.868 136.26 388.931 132.582 391.569 129.894C394.207 127.207 397.251 125.863 400.701 125.863Z"/>
<path d="M462.789 214.768C462.789 219.294 463.093 222.689 463.702 224.952C464.311 227.074 465.258 228.701 466.543 229.832L464.615 242.776C461.977 241.927 459.914 240.229 458.426 237.683C456.938 235.137 455.89 231.247 455.281 226.013C451.831 237.33 446.994 242.988 440.771 242.988C436.036 242.988 432.282 239.947 429.509 233.864C426.735 227.64 425.349 219.365 425.349 209.039C425.349 197.156 427.209 188.103 430.929 181.879C434.65 175.655 439.96 172.543 446.859 172.543H453.759V162.995C453.759 155.215 452.981 149.627 451.425 146.232C449.937 142.696 447.468 140.928 444.018 140.928C440.298 140.928 435.969 142.908 431.031 146.869L428.799 133.502C434.751 128.409 440.298 125.863 445.439 125.863C457.006 125.863 462.789 137.957 462.789 162.146V214.768ZM442.902 228.559C447.637 228.559 451.256 222.76 453.759 211.16V184.85H447.874C439.08 184.85 434.683 192.559 434.683 207.978C434.683 214.626 435.394 219.718 436.814 223.255C438.235 226.791 440.264 228.559 442.902 228.559Z"/>
<path d="M501.166 126.075C502.925 126.075 504.447 126.499 505.732 127.348L504.21 145.808C502.925 144.959 501.538 144.535 500.05 144.535C497.074 144.535 494.639 147.01 492.745 151.961C490.919 156.912 489.464 164.48 488.382 174.665V240.229H479.25V128.621H487.164L487.875 150.688C490.513 134.28 494.943 126.075 501.166 126.075Z"/>
<path d="M572.966 240.229H563.936L561.805 174.241C560.858 144.676 560.351 124.307 560.283 113.132L546.89 223.679H538.062L524.06 113.132C524.128 125.439 523.756 145.95 522.944 174.665L520.915 240.229H511.986L517.363 94.2477H529.641L542.628 202.249L555.108 94.2477H567.588L572.966 240.229Z"/>
<path d="M624.199 181.03C624.199 184.001 624.131 187.325 623.996 191.003H592.948C593.219 204.017 594.47 213.424 596.702 219.223C598.934 224.882 601.978 227.711 605.834 227.711C608.269 227.711 610.434 226.933 612.328 225.377C614.289 223.821 616.319 221.274 618.416 217.738L622.474 228.984C617.469 238.32 611.787 242.988 605.428 242.988C598.461 242.988 593.05 237.966 589.194 227.923C585.406 217.738 583.512 203.522 583.512 185.274C583.512 167.026 585.338 152.598 588.991 141.989C592.644 131.238 597.717 125.863 604.211 125.863C610.637 125.863 615.575 130.672 619.024 140.291C622.474 149.769 624.199 163.349 624.199 181.03ZM615.372 175.302C615.372 151.961 611.685 140.291 604.312 140.291C600.93 140.291 598.258 143.262 596.296 149.203C594.335 155.003 593.219 164.48 592.948 177.636H615.372V175.302Z"/>
<path d="M660.741 125.863C665.002 125.863 668.317 128.834 670.684 134.775C673.119 140.574 674.337 148.637 674.337 158.963V240.229H665.205V161.297C665.205 154.083 664.63 148.92 663.48 145.808C662.33 142.555 660.571 140.928 658.204 140.928C653.74 140.928 649.681 147.576 646.028 160.873V240.229H636.896V128.621H644.811L645.521 145.172C649.647 132.299 654.72 125.863 660.741 125.863Z"/>
<path d="M727.843 181.03C727.843 184.001 727.776 187.325 727.64 191.003H696.592C696.863 204.017 698.114 213.424 700.347 219.223C702.579 224.882 705.623 227.711 709.478 227.711C711.913 227.711 714.078 226.933 715.972 225.377C717.934 223.821 719.963 221.274 722.06 217.738L726.118 228.984C721.113 238.32 715.431 242.988 709.072 242.988C702.105 242.988 696.694 237.966 692.838 227.923C689.05 217.738 687.156 203.522 687.156 185.274C687.156 167.026 688.983 152.598 692.635 141.989C696.288 131.238 701.361 125.863 707.855 125.863C714.281 125.863 719.219 130.672 722.669 140.291C726.118 149.769 727.843 163.349 727.843 181.03ZM719.016 175.302C719.016 151.961 715.329 140.291 707.956 140.291C704.574 140.291 701.902 143.262 699.941 149.203C697.979 155.003 696.863 164.48 696.592 177.636H719.016V175.302Z"/>
<path d="M779.706 132.653C776.797 135.058 772.299 136.26 766.211 136.26C771.893 142.201 774.734 151.961 774.734 165.541C774.734 176.716 773.043 185.769 769.661 192.701C766.346 199.49 761.814 202.885 756.065 202.885C753.9 202.885 751.939 202.178 750.18 200.763C748.286 203.593 747.339 207.2 747.339 211.585C747.339 218.233 749.571 221.557 754.035 221.557H761.036C766.313 221.557 770.507 224.386 773.618 230.045C776.73 235.561 778.285 242.634 778.285 251.263C778.285 261.731 776.358 269.935 772.502 275.876C768.646 281.959 762.998 285 755.557 285C747.846 285 742.367 282.242 739.12 276.725C735.941 271.208 734.351 262.792 734.351 251.475H742.57C742.57 256.143 742.942 259.821 743.686 262.509C744.498 265.338 745.817 267.389 747.643 268.662C749.537 270.076 752.209 270.784 755.659 270.784C760.462 270.784 763.911 269.228 766.008 266.116C768.105 263.004 769.154 258.548 769.154 252.748C769.154 247.373 768.274 243.271 766.516 240.442C764.825 237.613 762.389 236.198 759.21 236.198H753.224C748.556 236.198 745.073 234.359 742.773 230.681C740.473 226.862 739.323 221.84 739.323 215.616C739.323 208.402 741.183 201.966 744.904 196.308C742.063 192.913 739.932 188.669 738.511 183.577C737.159 178.343 736.482 172.048 736.482 164.692C736.482 153.093 738.241 143.757 741.758 136.684C745.276 129.612 749.909 126.075 755.659 126.075C761.003 126.075 765.129 125.297 768.038 123.741C771.014 122.185 774.058 119.78 777.169 116.527L779.706 132.653ZM755.76 139.443C752.446 139.443 749.909 141.635 748.151 146.02C746.459 150.264 745.614 156.488 745.614 164.692C745.614 172.614 746.493 178.838 748.252 183.364C750.078 187.75 752.581 189.942 755.76 189.942C762.457 189.942 765.805 181.455 765.805 164.48C765.805 156.276 764.96 150.052 763.269 145.808C761.578 141.564 759.075 139.443 755.76 139.443Z"/>
<path d="M819.599 214.768C819.599 219.294 819.903 222.689 820.512 224.952C821.121 227.074 822.068 228.701 823.353 229.832L821.425 242.776C818.787 241.927 816.724 240.229 815.236 237.683C813.748 235.137 812.699 231.247 812.091 226.013C808.641 237.33 803.804 242.988 797.581 242.988C792.846 242.988 789.092 239.947 786.319 233.864C783.545 227.64 782.159 219.365 782.159 209.039C782.159 197.156 784.019 188.103 787.739 181.879C791.459 175.655 796.769 172.543 803.669 172.543H810.569V162.995C810.569 155.215 809.791 149.627 808.235 146.232C806.747 142.696 804.278 140.928 800.828 140.928C797.108 140.928 792.778 142.908 787.841 146.869L785.608 133.502C791.561 128.409 797.108 125.863 802.248 125.863C813.815 125.863 819.599 137.957 819.599 162.146V214.768ZM799.712 228.559C804.447 228.559 808.066 222.76 810.569 211.16V184.85H804.684C795.89 184.85 791.493 192.559 791.493 207.978C791.493 214.626 792.204 219.718 793.624 223.255C795.045 226.791 797.074 228.559 799.712 228.559Z"/>
<path d="M861.325 235.349C857.942 240.442 854.188 242.988 850.062 242.988C845.733 242.988 842.384 240.371 840.017 235.137C837.717 229.903 836.567 222.548 836.567 213.07V143.05H828.957V128.621H836.567V102.947L845.699 100.613V128.621H857.469L856.454 143.05H845.699V212.858C845.699 222.477 847.627 227.286 851.482 227.286C852.632 227.286 853.681 226.933 854.628 226.225C855.643 225.518 856.759 224.457 857.976 223.043L861.325 235.349Z"/>
<path d="M894.518 235.349C891.136 240.442 887.382 242.988 883.256 242.988C878.927 242.988 875.578 240.371 873.211 235.137C870.911 229.903 869.761 222.548 869.761 213.07V143.05H862.151V128.621H869.761V102.947L878.893 100.613V128.621H890.663L889.648 143.05H878.893V212.858C878.893 222.477 880.821 227.286 884.676 227.286C885.826 227.286 886.875 226.933 887.822 226.225C888.836 225.518 889.953 224.457 891.17 223.043L894.518 235.349Z"/>
<path d="M911.579 128.621V240.229H902.448V128.621H911.579ZM907.014 76C908.772 76 910.193 77.2024 911.275 79.6071C912.425 82.0119 913 84.9824 913 88.5188C913 92.0552 912.459 95.0257 911.377 97.4305C910.294 99.6937 908.84 100.825 907.014 100.825C905.255 100.825 903.801 99.6937 902.651 97.4305C901.568 95.0257 901.027 92.0552 901.027 88.5188C901.027 84.9824 901.568 82.0119 902.651 79.6071C903.801 77.2024 905.255 76 907.014 76Z"/>
</mask>
<path d="M313.815 125.863C316.656 125.863 319.26 126.853 321.628 128.834C323.995 130.814 326.261 133.855 328.426 137.957L324.367 149.415C322.744 146.728 321.12 144.747 319.497 143.474C317.873 142.06 316.115 141.352 314.221 141.352C310.23 141.352 307.118 144.889 304.886 151.961C302.721 159.034 301.639 170.068 301.639 185.062C301.639 213.07 305.833 227.074 314.221 227.074C316.115 227.074 317.84 226.438 319.395 225.164C320.951 223.75 322.608 221.699 324.367 219.011L328.629 230.681C324.299 238.886 319.395 242.988 313.916 242.988C307.084 242.988 301.707 238.037 297.783 228.135C293.928 218.233 292 203.946 292 185.274C292 173.109 292.879 162.571 294.638 153.659C296.464 144.747 299.001 137.887 302.248 133.077C305.562 128.268 309.418 125.863 313.815 125.863Z" fill="white"/>
<path d="M374.204 181.03C374.204 184.001 374.137 187.325 374.001 191.003H342.953C343.224 204.017 344.475 213.424 346.708 219.223C348.94 224.882 351.984 227.711 355.839 227.711C358.274 227.711 360.439 226.933 362.333 225.377C364.295 223.821 366.324 221.274 368.421 217.738L372.479 228.984C367.474 238.32 361.792 242.988 355.433 242.988C348.466 242.988 343.055 237.966 339.199 227.923C335.411 217.738 333.517 203.522 333.517 185.274C333.517 167.026 335.344 152.598 338.996 141.989C342.649 131.238 347.722 125.863 354.216 125.863C360.642 125.863 365.58 130.672 369.03 140.291C372.479 149.769 374.204 163.349 374.204 181.03ZM365.377 175.302C365.377 151.961 361.69 140.291 354.317 140.291C350.935 140.291 348.263 143.262 346.302 149.203C344.34 155.003 343.224 164.48 342.953 177.636H365.377V175.302Z" fill="white"/>
<path d="M400.701 125.863C406.856 125.863 412.335 130.107 417.138 138.594L413.282 149.84C411.118 146.728 409.089 144.394 407.195 142.838C405.301 141.282 403.305 140.504 401.208 140.504C398.435 140.504 396.236 141.918 394.613 144.747C393.057 147.435 392.279 151.183 392.279 155.993C392.279 160.661 393.023 164.339 394.512 167.026C396.067 169.714 398.976 172.472 403.237 175.302C408.581 178.838 412.471 183.152 414.906 188.245C417.341 193.337 418.559 200.339 418.559 209.251C418.559 219.718 416.732 227.994 413.079 234.076C409.427 240.017 404.861 242.988 399.382 242.988C392.144 242.988 386.022 237.966 381.017 227.923L385.684 217.314C389.946 224.528 394.444 228.135 399.179 228.135C402.155 228.135 404.556 226.579 406.383 223.467C408.209 220.355 409.122 216.041 409.122 210.524C409.122 206.563 408.784 203.38 408.108 200.976C407.499 198.571 406.349 196.449 404.658 194.61C403.035 192.63 400.633 190.579 397.454 188.457C392.381 184.92 388.728 180.677 386.496 175.726C384.264 170.775 383.148 164.48 383.148 156.842C383.148 150.901 383.892 145.596 385.38 140.928C386.868 136.26 388.931 132.582 391.569 129.894C394.207 127.207 397.251 125.863 400.701 125.863Z" fill="white"/>
<path d="M462.789 214.768C462.789 219.294 463.093 222.689 463.702 224.952C464.311 227.074 465.258 228.701 466.543 229.832L464.615 242.776C461.977 241.927 459.914 240.229 458.426 237.683C456.938 235.137 455.89 231.247 455.281 226.013C451.831 237.33 446.994 242.988 440.771 242.988C436.036 242.988 432.282 239.947 429.509 233.864C426.735 227.64 425.349 219.365 425.349 209.039C425.349 197.156 427.209 188.103 430.929 181.879C434.65 175.655 439.96 172.543 446.859 172.543H453.759V162.995C453.759 155.215 452.981 149.627 451.425 146.232C449.937 142.696 447.468 140.928 444.018 140.928C440.298 140.928 435.969 142.908 431.031 146.869L428.799 133.502C434.751 128.409 440.298 125.863 445.439 125.863C457.006 125.863 462.789 137.957 462.789 162.146V214.768ZM442.902 228.559C447.637 228.559 451.256 222.76 453.759 211.16V184.85H447.874C439.08 184.85 434.683 192.559 434.683 207.978C434.683 214.626 435.394 219.718 436.814 223.255C438.235 226.791 440.264 228.559 442.902 228.559Z" fill="white"/>
<path d="M501.166 126.075C502.925 126.075 504.447 126.499 505.732 127.348L504.21 145.808C502.925 144.959 501.538 144.535 500.05 144.535C497.074 144.535 494.639 147.01 492.745 151.961C490.919 156.912 489.464 164.48 488.382 174.665V240.229H479.25V128.621H487.164L487.875 150.688C490.513 134.28 494.943 126.075 501.166 126.075Z" fill="white"/>
<path d="M572.966 240.229H563.936L561.805 174.241C560.858 144.676 560.351 124.307 560.283 113.132L546.89 223.679H538.062L524.06 113.132C524.128 125.439 523.756 145.95 522.944 174.665L520.915 240.229H511.986L517.363 94.2477H529.641L542.628 202.249L555.108 94.2477H567.588L572.966 240.229Z" fill="white"/>
<path d="M624.199 181.03C624.199 184.001 624.131 187.325 623.996 191.003H592.948C593.219 204.017 594.47 213.424 596.702 219.223C598.934 224.882 601.978 227.711 605.834 227.711C608.269 227.711 610.434 226.933 612.328 225.377C614.289 223.821 616.319 221.274 618.416 217.738L622.474 228.984C617.469 238.32 611.787 242.988 605.428 242.988C598.461 242.988 593.05 237.966 589.194 227.923C585.406 217.738 583.512 203.522 583.512 185.274C583.512 167.026 585.338 152.598 588.991 141.989C592.644 131.238 597.717 125.863 604.211 125.863C610.637 125.863 615.575 130.672 619.024 140.291C622.474 149.769 624.199 163.349 624.199 181.03ZM615.372 175.302C615.372 151.961 611.685 140.291 604.312 140.291C600.93 140.291 598.258 143.262 596.296 149.203C594.335 155.003 593.219 164.48 592.948 177.636H615.372V175.302Z" fill="white"/>
<path d="M660.741 125.863C665.002 125.863 668.317 128.834 670.684 134.775C673.119 140.574 674.337 148.637 674.337 158.963V240.229H665.205V161.297C665.205 154.083 664.63 148.92 663.48 145.808C662.33 142.555 660.571 140.928 658.204 140.928C653.74 140.928 649.681 147.576 646.028 160.873V240.229H636.896V128.621H644.811L645.521 145.172C649.647 132.299 654.72 125.863 660.741 125.863Z" fill="white"/>
<path d="M727.843 181.03C727.843 184.001 727.776 187.325 727.64 191.003H696.592C696.863 204.017 698.114 213.424 700.347 219.223C702.579 224.882 705.623 227.711 709.478 227.711C711.913 227.711 714.078 226.933 715.972 225.377C717.934 223.821 719.963 221.274 722.06 217.738L726.118 228.984C721.113 238.32 715.431 242.988 709.072 242.988C702.105 242.988 696.694 237.966 692.838 227.923C689.05 217.738 687.156 203.522 687.156 185.274C687.156 167.026 688.983 152.598 692.635 141.989C696.288 131.238 701.361 125.863 707.855 125.863C714.281 125.863 719.219 130.672 722.669 140.291C726.118 149.769 727.843 163.349 727.843 181.03ZM719.016 175.302C719.016 151.961 715.329 140.291 707.956 140.291C704.574 140.291 701.902 143.262 699.941 149.203C697.979 155.003 696.863 164.48 696.592 177.636H719.016V175.302Z" fill="white"/>
<path d="M779.706 132.653C776.797 135.058 772.299 136.26 766.211 136.26C771.893 142.201 774.734 151.961 774.734 165.541C774.734 176.716 773.043 185.769 769.661 192.701C766.346 199.49 761.814 202.885 756.065 202.885C753.9 202.885 751.939 202.178 750.18 200.763C748.286 203.593 747.339 207.2 747.339 211.585C747.339 218.233 749.571 221.557 754.035 221.557H761.036C766.313 221.557 770.507 224.386 773.618 230.045C776.73 235.561 778.285 242.634 778.285 251.263C778.285 261.731 776.358 269.935 772.502 275.876C768.646 281.959 762.998 285 755.557 285C747.846 285 742.367 282.242 739.12 276.725C735.941 271.208 734.351 262.792 734.351 251.475H742.57C742.57 256.143 742.942 259.821 743.686 262.509C744.498 265.338 745.817 267.389 747.643 268.662C749.537 270.076 752.209 270.784 755.659 270.784C760.462 270.784 763.911 269.228 766.008 266.116C768.105 263.004 769.154 258.548 769.154 252.748C769.154 247.373 768.274 243.271 766.516 240.442C764.825 237.613 762.389 236.198 759.21 236.198H753.224C748.556 236.198 745.073 234.359 742.773 230.681C740.473 226.862 739.323 221.84 739.323 215.616C739.323 208.402 741.183 201.966 744.904 196.308C742.063 192.913 739.932 188.669 738.511 183.577C737.159 178.343 736.482 172.048 736.482 164.692C736.482 153.093 738.241 143.757 741.758 136.684C745.276 129.612 749.909 126.075 755.659 126.075C761.003 126.075 765.129 125.297 768.038 123.741C771.014 122.185 774.058 119.78 777.169 116.527L779.706 132.653ZM755.76 139.443C752.446 139.443 749.909 141.635 748.151 146.02C746.459 150.264 745.614 156.488 745.614 164.692C745.614 172.614 746.493 178.838 748.252 183.364C750.078 187.75 752.581 189.942 755.76 189.942C762.457 189.942 765.805 181.455 765.805 164.48C765.805 156.276 764.96 150.052 763.269 145.808C761.578 141.564 759.075 139.443 755.76 139.443Z" fill="white"/>
<path d="M819.599 214.768C819.599 219.294 819.903 222.689 820.512 224.952C821.121 227.074 822.068 228.701 823.353 229.832L821.425 242.776C818.787 241.927 816.724 240.229 815.236 237.683C813.748 235.137 812.699 231.247 812.091 226.013C808.641 237.33 803.804 242.988 797.581 242.988C792.846 242.988 789.092 239.947 786.319 233.864C783.545 227.64 782.159 219.365 782.159 209.039C782.159 197.156 784.019 188.103 787.739 181.879C791.459 175.655 796.769 172.543 803.669 172.543H810.569V162.995C810.569 155.215 809.791 149.627 808.235 146.232C806.747 142.696 804.278 140.928 800.828 140.928C797.108 140.928 792.778 142.908 787.841 146.869L785.608 133.502C791.561 128.409 797.108 125.863 802.248 125.863C813.815 125.863 819.599 137.957 819.599 162.146V214.768ZM799.712 228.559C804.447 228.559 808.066 222.76 810.569 211.16V184.85H804.684C795.89 184.85 791.493 192.559 791.493 207.978C791.493 214.626 792.204 219.718 793.624 223.255C795.045 226.791 797.074 228.559 799.712 228.559Z" fill="white"/>
<path d="M861.325 235.349C857.942 240.442 854.188 242.988 850.062 242.988C845.733 242.988 842.384 240.371 840.017 235.137C837.717 229.903 836.567 222.548 836.567 213.07V143.05H828.957V128.621H836.567V102.947L845.699 100.613V128.621H857.469L856.454 143.05H845.699V212.858C845.699 222.477 847.627 227.286 851.482 227.286C852.632 227.286 853.681 226.933 854.628 226.225C855.643 225.518 856.759 224.457 857.976 223.043L861.325 235.349Z" fill="white"/>
<path d="M894.518 235.349C891.136 240.442 887.382 242.988 883.256 242.988C878.927 242.988 875.578 240.371 873.211 235.137C870.911 229.903 869.761 222.548 869.761 213.07V143.05H862.151V128.621H869.761V102.947L878.893 100.613V128.621H890.663L889.648 143.05H878.893V212.858C878.893 222.477 880.821 227.286 884.676 227.286C885.826 227.286 886.875 226.933 887.822 226.225C888.836 225.518 889.953 224.457 891.17 223.043L894.518 235.349Z" fill="white"/>
<path d="M911.579 128.621V240.229H902.448V128.621H911.579ZM907.014 76C908.772 76 910.193 77.2024 911.275 79.6071C912.425 82.0119 913 84.9824 913 88.5188C913 92.0552 912.459 95.0257 911.377 97.4305C910.294 99.6937 908.84 100.825 907.014 100.825C905.255 100.825 903.801 99.6937 902.651 97.4305C901.568 95.0257 901.027 92.0552 901.027 88.5188C901.027 84.9824 901.568 82.0119 902.651 79.6071C903.801 77.2024 905.255 76 907.014 76Z" fill="white"/>
<path d="M313.815 125.863C316.656 125.863 319.26 126.853 321.628 128.834C323.995 130.814 326.261 133.855 328.426 137.957L324.367 149.415C322.744 146.728 321.12 144.747 319.497 143.474C317.873 142.06 316.115 141.352 314.221 141.352C310.23 141.352 307.118 144.889 304.886 151.961C302.721 159.034 301.639 170.068 301.639 185.062C301.639 213.07 305.833 227.074 314.221 227.074C316.115 227.074 317.84 226.438 319.395 225.164C320.951 223.75 322.608 221.699 324.367 219.011L328.629 230.681C324.299 238.886 319.395 242.988 313.916 242.988C307.084 242.988 301.707 238.037 297.783 228.135C293.928 218.233 292 203.946 292 185.274C292 173.109 292.879 162.571 294.638 153.659C296.464 144.747 299.001 137.887 302.248 133.077C305.562 128.268 309.418 125.863 313.815 125.863Z" stroke="white" stroke-width="32" mask="url(#path-3-outside-2)"/>
<path d="M374.204 181.03C374.204 184.001 374.137 187.325 374.001 191.003H342.953C343.224 204.017 344.475 213.424 346.708 219.223C348.94 224.882 351.984 227.711 355.839 227.711C358.274 227.711 360.439 226.933 362.333 225.377C364.295 223.821 366.324 221.274 368.421 217.738L372.479 228.984C367.474 238.32 361.792 242.988 355.433 242.988C348.466 242.988 343.055 237.966 339.199 227.923C335.411 217.738 333.517 203.522 333.517 185.274C333.517 167.026 335.344 152.598 338.996 141.989C342.649 131.238 347.722 125.863 354.216 125.863C360.642 125.863 365.58 130.672 369.03 140.291C372.479 149.769 374.204 163.349 374.204 181.03ZM365.377 175.302C365.377 151.961 361.69 140.291 354.317 140.291C350.935 140.291 348.263 143.262 346.302 149.203C344.34 155.003 343.224 164.48 342.953 177.636H365.377V175.302Z" stroke="white" stroke-width="32" mask="url(#path-3-outside-2)"/>
<path d="M400.701 125.863C406.856 125.863 412.335 130.107 417.138 138.594L413.282 149.84C411.118 146.728 409.089 144.394 407.195 142.838C405.301 141.282 403.305 140.504 401.208 140.504C398.435 140.504 396.236 141.918 394.613 144.747C393.057 147.435 392.279 151.183 392.279 155.993C392.279 160.661 393.023 164.339 394.512 167.026C396.067 169.714 398.976 172.472 403.237 175.302C408.581 178.838 412.471 183.152 414.906 188.245C417.341 193.337 418.559 200.339 418.559 209.251C418.559 219.718 416.732 227.994 413.079 234.076C409.427 240.017 404.861 242.988 399.382 242.988C392.144 242.988 386.022 237.966 381.017 227.923L385.684 217.314C389.946 224.528 394.444 228.135 399.179 228.135C402.155 228.135 404.556 226.579 406.383 223.467C408.209 220.355 409.122 216.041 409.122 210.524C409.122 206.563 408.784 203.38 408.108 200.976C407.499 198.571 406.349 196.449 404.658 194.61C403.035 192.63 400.633 190.579 397.454 188.457C392.381 184.92 388.728 180.677 386.496 175.726C384.264 170.775 383.148 164.48 383.148 156.842C383.148 150.901 383.892 145.596 385.38 140.928C386.868 136.26 388.931 132.582 391.569 129.894C394.207 127.207 397.251 125.863 400.701 125.863Z" stroke="white" stroke-width="32" mask="url(#path-3-outside-2)"/>
<path d="M462.789 214.768C462.789 219.294 463.093 222.689 463.702 224.952C464.311 227.074 465.258 228.701 466.543 229.832L464.615 242.776C461.977 241.927 459.914 240.229 458.426 237.683C456.938 235.137 455.89 231.247 455.281 226.013C451.831 237.33 446.994 242.988 440.771 242.988C436.036 242.988 432.282 239.947 429.509 233.864C426.735 227.64 425.349 219.365 425.349 209.039C425.349 197.156 427.209 188.103 430.929 181.879C434.65 175.655 439.96 172.543 446.859 172.543H453.759V162.995C453.759 155.215 452.981 149.627 451.425 146.232C449.937 142.696 447.468 140.928 444.018 140.928C440.298 140.928 435.969 142.908 431.031 146.869L428.799 133.502C434.751 128.409 440.298 125.863 445.439 125.863C457.006 125.863 462.789 137.957 462.789 162.146V214.768ZM442.902 228.559C447.637 228.559 451.256 222.76 453.759 211.16V184.85H447.874C439.08 184.85 434.683 192.559 434.683 207.978C434.683 214.626 435.394 219.718 436.814 223.255C438.235 226.791 440.264 228.559 442.902 228.559Z" stroke="white" stroke-width="32" mask="url(#path-3-outside-2)"/>
<path d="M501.166 126.075C502.925 126.075 504.447 126.499 505.732 127.348L504.21 145.808C502.925 144.959 501.538 144.535 500.05 144.535C497.074 144.535 494.639 147.01 492.745 151.961C490.919 156.912 489.464 164.48 488.382 174.665V240.229H479.25V128.621H487.164L487.875 150.688C490.513 134.28 494.943 126.075 501.166 126.075Z" stroke="white" stroke-width="32" mask="url(#path-3-outside-2)"/>
<path d="M572.966 240.229H563.936L561.805 174.241C560.858 144.676 560.351 124.307 560.283 113.132L546.89 223.679H538.062L524.06 113.132C524.128 125.439 523.756 145.95 522.944 174.665L520.915 240.229H511.986L517.363 94.2477H529.641L542.628 202.249L555.108 94.2477H567.588L572.966 240.229Z" stroke="white" stroke-width="32" mask="url(#path-3-outside-2)"/>
<path d="M624.199 181.03C624.199 184.001 624.131 187.325 623.996 191.003H592.948C593.219 204.017 594.47 213.424 596.702 219.223C598.934 224.882 601.978 227.711 605.834 227.711C608.269 227.711 610.434 226.933 612.328 225.377C614.289 223.821 616.319 221.274 618.416 217.738L622.474 228.984C617.469 238.32 611.787 242.988 605.428 242.988C598.461 242.988 593.05 237.966 589.194 227.923C585.406 217.738 583.512 203.522 583.512 185.274C583.512 167.026 585.338 152.598 588.991 141.989C592.644 131.238 597.717 125.863 604.211 125.863C610.637 125.863 615.575 130.672 619.024 140.291C622.474 149.769 624.199 163.349 624.199 181.03ZM615.372 175.302C615.372 151.961 611.685 140.291 604.312 140.291C600.93 140.291 598.258 143.262 596.296 149.203C594.335 155.003 593.219 164.48 592.948 177.636H615.372V175.302Z" stroke="white" stroke-width="32" mask="url(#path-3-outside-2)"/>
<path d="M660.741 125.863C665.002 125.863 668.317 128.834 670.684 134.775C673.119 140.574 674.337 148.637 674.337 158.963V240.229H665.205V161.297C665.205 154.083 664.63 148.92 663.48 145.808C662.33 142.555 660.571 140.928 658.204 140.928C653.74 140.928 649.681 147.576 646.028 160.873V240.229H636.896V128.621H644.811L645.521 145.172C649.647 132.299 654.72 125.863 660.741 125.863Z" stroke="white" stroke-width="32" mask="url(#path-3-outside-2)"/>
<path d="M727.843 181.03C727.843 184.001 727.776 187.325 727.64 191.003H696.592C696.863 204.017 698.114 213.424 700.347 219.223C702.579 224.882 705.623 227.711 709.478 227.711C711.913 227.711 714.078 226.933 715.972 225.377C717.934 223.821 719.963 221.274 722.06 217.738L726.118 228.984C721.113 238.32 715.431 242.988 709.072 242.988C702.105 242.988 696.694 237.966 692.838 227.923C689.05 217.738 687.156 203.522 687.156 185.274C687.156 167.026 688.983 152.598 692.635 141.989C696.288 131.238 701.361 125.863 707.855 125.863C714.281 125.863 719.219 130.672 722.669 140.291C726.118 149.769 727.843 163.349 727.843 181.03ZM719.016 175.302C719.016 151.961 715.329 140.291 707.956 140.291C704.574 140.291 701.902 143.262 699.941 149.203C697.979 155.003 696.863 164.48 696.592 177.636H719.016V175.302Z" stroke="white" stroke-width="32" mask="url(#path-3-outside-2)"/>
<path d="M779.706 132.653C776.797 135.058 772.299 136.26 766.211 136.26C771.893 142.201 774.734 151.961 774.734 165.541C774.734 176.716 773.043 185.769 769.661 192.701C766.346 199.49 761.814 202.885 756.065 202.885C753.9 202.885 751.939 202.178 750.18 200.763C748.286 203.593 747.339 207.2 747.339 211.585C747.339 218.233 749.571 221.557 754.035 221.557H761.036C766.313 221.557 770.507 224.386 773.618 230.045C776.73 235.561 778.285 242.634 778.285 251.263C778.285 261.731 776.358 269.935 772.502 275.876C768.646 281.959 762.998 285 755.557 285C747.846 285 742.367 282.242 739.12 276.725C735.941 271.208 734.351 262.792 734.351 251.475H742.57C742.57 256.143 742.942 259.821 743.686 262.509C744.498 265.338 745.817 267.389 747.643 268.662C749.537 270.076 752.209 270.784 755.659 270.784C760.462 270.784 763.911 269.228 766.008 266.116C768.105 263.004 769.154 258.548 769.154 252.748C769.154 247.373 768.274 243.271 766.516 240.442C764.825 237.613 762.389 236.198 759.21 236.198H753.224C748.556 236.198 745.073 234.359 742.773 230.681C740.473 226.862 739.323 221.84 739.323 215.616C739.323 208.402 741.183 201.966 744.904 196.308C742.063 192.913 739.932 188.669 738.511 183.577C737.159 178.343 736.482 172.048 736.482 164.692C736.482 153.093 738.241 143.757 741.758 136.684C745.276 129.612 749.909 126.075 755.659 126.075C761.003 126.075 765.129 125.297 768.038 123.741C771.014 122.185 774.058 119.78 777.169 116.527L779.706 132.653ZM755.76 139.443C752.446 139.443 749.909 141.635 748.151 146.02C746.459 150.264 745.614 156.488 745.614 164.692C745.614 172.614 746.493 178.838 748.252 183.364C750.078 187.75 752.581 189.942 755.76 189.942C762.457 189.942 765.805 181.455 765.805 164.48C765.805 156.276 764.96 150.052 763.269 145.808C761.578 141.564 759.075 139.443 755.76 139.443Z" stroke="white" stroke-width="32" mask="url(#path-3-outside-2)"/>
<path d="M819.599 214.768C819.599 219.294 819.903 222.689 820.512 224.952C821.121 227.074 822.068 228.701 823.353 229.832L821.425 242.776C818.787 241.927 816.724 240.229 815.236 237.683C813.748 235.137 812.699 231.247 812.091 226.013C808.641 237.33 803.804 242.988 797.581 242.988C792.846 242.988 789.092 239.947 786.319 233.864C783.545 227.64 782.159 219.365 782.159 209.039C782.159 197.156 784.019 188.103 787.739 181.879C791.459 175.655 796.769 172.543 803.669 172.543H810.569V162.995C810.569 155.215 809.791 149.627 808.235 146.232C806.747 142.696 804.278 140.928 800.828 140.928C797.108 140.928 792.778 142.908 787.841 146.869L785.608 133.502C791.561 128.409 797.108 125.863 802.248 125.863C813.815 125.863 819.599 137.957 819.599 162.146V214.768ZM799.712 228.559C804.447 228.559 808.066 222.76 810.569 211.16V184.85H804.684C795.89 184.85 791.493 192.559 791.493 207.978C791.493 214.626 792.204 219.718 793.624 223.255C795.045 226.791 797.074 228.559 799.712 228.559Z" stroke="white" stroke-width="32" mask="url(#path-3-outside-2)"/>
<path d="M861.325 235.349C857.942 240.442 854.188 242.988 850.062 242.988C845.733 242.988 842.384 240.371 840.017 235.137C837.717 229.903 836.567 222.548 836.567 213.07V143.05H828.957V128.621H836.567V102.947L845.699 100.613V128.621H857.469L856.454 143.05H845.699V212.858C845.699 222.477 847.627 227.286 851.482 227.286C852.632 227.286 853.681 226.933 854.628 226.225C855.643 225.518 856.759 224.457 857.976 223.043L861.325 235.349Z" stroke="white" stroke-width="32" mask="url(#path-3-outside-2)"/>
<path d="M894.518 235.349C891.136 240.442 887.382 242.988 883.256 242.988C878.927 242.988 875.578 240.371 873.211 235.137C870.911 229.903 869.761 222.548 869.761 213.07V143.05H862.151V128.621H869.761V102.947L878.893 100.613V128.621H890.663L889.648 143.05H878.893V212.858C878.893 222.477 880.821 227.286 884.676 227.286C885.826 227.286 886.875 226.933 887.822 226.225C888.836 225.518 889.953 224.457 891.17 223.043L894.518 235.349Z" stroke="white" stroke-width="32" mask="url(#path-3-outside-2)"/>
<path d="M911.579 128.621V240.229H902.448V128.621H911.579ZM907.014 76C908.772 76 910.193 77.2024 911.275 79.6071C912.425 82.0119 913 84.9824 913 88.5188C913 92.0552 912.459 95.0257 911.377 97.4305C910.294 99.6937 908.84 100.825 907.014 100.825C905.255 100.825 903.801 99.6937 902.651 97.4305C901.568 95.0257 901.027 92.0552 901.027 88.5188C901.027 84.9824 901.568 82.0119 902.651 79.6071C903.801 77.2024 905.255 76 907.014 76Z" stroke="white" stroke-width="32" mask="url(#path-3-outside-2)"/>
<rect x="308" y="99" width="16" height="21" fill="white"/>
<circle cx="278.5" cy="235.5" r="10.5" fill="white"/>
<path d="M68.6962 258.405L68.6962 107.202C68.6962 51.974 113.468 7.20251 168.696 7.20251L319.899 7.20251V158.405C319.899 213.634 275.127 258.405 219.899 258.405H68.6962Z" fill="#234E52"/>
<path d="M68.6962 258.405L68.6962 107.202C68.6962 51.974 113.468 7.20251 168.696 7.20251L319.899 7.20251V158.405C319.899 213.634 275.127 258.405 219.899 258.405H68.6962Z" fill="url(#paint0_linear)"/>
<path d="M311.815 125.863C314.656 125.863 317.26 126.853 319.628 128.834C321.995 130.814 324.261 133.855 326.426 137.957L322.367 149.415C320.744 146.728 319.12 144.747 317.497 143.474C315.873 142.06 314.115 141.352 312.221 141.352C308.23 141.352 305.118 144.889 302.886 151.961C300.721 159.034 299.639 170.068 299.639 185.062C299.639 213.07 303.833 227.074 312.221 227.074C314.115 227.074 315.84 226.438 317.395 225.164C318.951 223.75 320.608 221.699 322.367 219.011L326.629 230.681C322.299 238.886 317.395 242.988 311.916 242.988C305.084 242.988 299.707 238.037 295.783 228.135C291.928 218.233 290 203.946 290 185.274C290 173.109 290.879 162.571 292.638 153.659C294.464 144.747 297.001 137.887 300.248 133.077C303.562 128.268 307.418 125.863 311.815 125.863Z" fill="#234E52"/>
<path d="M372.204 181.03C372.204 184.001 372.137 187.325 372.001 191.003H340.953C341.224 204.017 342.475 213.424 344.708 219.223C346.94 224.882 349.984 227.711 353.839 227.711C356.274 227.711 358.439 226.933 360.333 225.377C362.295 223.821 364.324 221.274 366.421 217.738L370.479 228.984C365.474 238.32 359.792 242.988 353.433 242.988C346.466 242.988 341.055 237.966 337.199 227.923C333.411 217.738 331.517 203.522 331.517 185.274C331.517 167.026 333.344 152.598 336.996 141.989C340.649 131.238 345.722 125.863 352.216 125.863C358.642 125.863 363.58 130.672 367.03 140.291C370.479 149.769 372.204 163.349 372.204 181.03ZM363.377 175.302C363.377 151.961 359.69 140.291 352.317 140.291C348.935 140.291 346.263 143.262 344.302 149.203C342.34 155.003 341.224 164.48 340.953 177.636H363.377V175.302Z" fill="#234E52"/>
<path d="M398.701 125.863C404.856 125.863 410.335 130.107 415.138 138.594L411.282 149.84C409.118 146.728 407.089 144.394 405.195 142.838C403.301 141.282 401.305 140.504 399.208 140.504C396.435 140.504 394.236 141.918 392.613 144.747C391.057 147.435 390.279 151.183 390.279 155.993C390.279 160.661 391.023 164.339 392.512 167.026C394.067 169.714 396.976 172.472 401.237 175.302C406.581 178.838 410.471 183.152 412.906 188.245C415.341 193.337 416.559 200.339 416.559 209.251C416.559 219.718 414.732 227.994 411.079 234.076C407.427 240.017 402.861 242.988 397.382 242.988C390.144 242.988 384.022 237.966 379.017 227.923L383.684 217.314C387.946 224.528 392.444 228.135 397.179 228.135C400.155 228.135 402.556 226.579 404.383 223.467C406.209 220.355 407.122 216.041 407.122 210.524C407.122 206.563 406.784 203.38 406.108 200.976C405.499 198.571 404.349 196.449 402.658 194.61C401.035 192.63 398.633 190.579 395.454 188.457C390.381 184.92 386.728 180.677 384.496 175.726C382.264 170.775 381.148 164.48 381.148 156.842C381.148 150.901 381.892 145.596 383.38 140.928C384.868 136.26 386.931 132.582 389.569 129.894C392.207 127.207 395.251 125.863 398.701 125.863Z" fill="#234E52"/>
<path d="M460.789 214.768C460.789 219.294 461.093 222.689 461.702 224.952C462.311 227.074 463.258 228.701 464.543 229.832L462.615 242.776C459.977 241.927 457.914 240.229 456.426 237.683C454.938 235.137 453.89 231.247 453.281 226.013C449.831 237.33 444.994 242.988 438.771 242.988C434.036 242.988 430.282 239.947 427.509 233.864C424.735 227.64 423.349 219.365 423.349 209.039C423.349 197.156 425.209 188.103 428.929 181.879C432.65 175.655 437.96 172.543 444.859 172.543H451.759V162.995C451.759 155.215 450.981 149.627 449.425 146.232C447.937 142.696 445.468 140.928 442.018 140.928C438.298 140.928 433.969 142.908 429.031 146.869L426.799 133.502C432.751 128.409 438.298 125.863 443.439 125.863C455.006 125.863 460.789 137.957 460.789 162.146V214.768ZM440.902 228.559C445.637 228.559 449.256 222.76 451.759 211.16V184.85H445.874C437.08 184.85 432.683 192.559 432.683 207.978C432.683 214.626 433.394 219.718 434.814 223.255C436.235 226.791 438.264 228.559 440.902 228.559Z" fill="#234E52"/>
<path d="M499.166 126.075C500.925 126.075 502.447 126.499 503.732 127.348L502.21 145.808C500.925 144.959 499.538 144.535 498.05 144.535C495.074 144.535 492.639 147.01 490.745 151.961C488.919 156.912 487.464 164.48 486.382 174.665V240.229H477.25V128.621H485.164L485.875 150.688C488.513 134.28 492.943 126.075 499.166 126.075Z" fill="#234E52"/>
<path d="M570.966 240.229H561.936L559.805 174.241C558.858 144.676 558.351 124.307 558.283 113.132L544.89 223.679H536.062L522.06 113.132C522.128 125.439 521.756 145.95 520.944 174.665L518.915 240.229H509.986L515.363 94.2477H527.641L540.628 202.249L553.108 94.2477H565.588L570.966 240.229Z" fill="#234E52"/>
<path d="M622.199 181.03C622.199 184.001 622.131 187.325 621.996 191.003H590.948C591.219 204.017 592.47 213.424 594.702 219.223C596.934 224.882 599.978 227.711 603.834 227.711C606.269 227.711 608.434 226.933 610.328 225.377C612.289 223.821 614.319 221.274 616.416 217.738L620.474 228.984C615.469 238.32 609.787 242.988 603.428 242.988C596.461 242.988 591.05 237.966 587.194 227.923C583.406 217.738 581.512 203.522 581.512 185.274C581.512 167.026 583.338 152.598 586.991 141.989C590.644 131.238 595.717 125.863 602.211 125.863C608.637 125.863 613.575 130.672 617.024 140.291C620.474 149.769 622.199 163.349 622.199 181.03ZM613.372 175.302C613.372 151.961 609.685 140.291 602.312 140.291C598.93 140.291 596.258 143.262 594.296 149.203C592.335 155.003 591.219 164.48 590.948 177.636H613.372V175.302Z" fill="#234E52"/>
<path d="M658.741 125.863C663.002 125.863 666.317 128.834 668.684 134.775C671.119 140.574 672.337 148.637 672.337 158.963V240.229H663.205V161.297C663.205 154.083 662.63 148.92 661.48 145.808C660.33 142.555 658.571 140.928 656.204 140.928C651.74 140.928 647.681 147.576 644.028 160.873V240.229H634.896V128.621H642.811L643.521 145.172C647.647 132.299 652.72 125.863 658.741 125.863Z" fill="#234E52"/>
<path d="M725.843 181.03C725.843 184.001 725.776 187.325 725.64 191.003H694.592C694.863 204.017 696.114 213.424 698.347 219.223C700.579 224.882 703.623 227.711 707.478 227.711C709.913 227.711 712.078 226.933 713.972 225.377C715.934 223.821 717.963 221.274 720.06 217.738L724.118 228.984C719.113 238.32 713.431 242.988 707.072 242.988C700.105 242.988 694.694 237.966 690.838 227.923C687.05 217.738 685.156 203.522 685.156 185.274C685.156 167.026 686.983 152.598 690.635 141.989C694.288 131.238 699.361 125.863 705.855 125.863C712.281 125.863 717.219 130.672 720.669 140.291C724.118 149.769 725.843 163.349 725.843 181.03ZM717.016 175.302C717.016 151.961 713.329 140.291 705.956 140.291C702.574 140.291 699.902 143.262 697.941 149.203C695.979 155.003 694.863 164.48 694.592 177.636H717.016V175.302Z" fill="#234E52"/>
<path d="M777.706 132.653C774.797 135.058 770.299 136.26 764.211 136.26C769.893 142.201 772.734 151.961 772.734 165.541C772.734 176.716 771.043 185.769 767.661 192.701C764.346 199.49 759.814 202.885 754.065 202.885C751.9 202.885 749.939 202.178 748.18 200.763C746.286 203.593 745.339 207.2 745.339 211.585C745.339 218.233 747.571 221.557 752.035 221.557H759.036C764.313 221.557 768.507 224.386 771.618 230.045C774.73 235.561 776.285 242.634 776.285 251.263C776.285 261.731 774.358 269.935 770.502 275.876C766.646 281.959 760.998 285 753.557 285C745.846 285 740.367 282.242 737.12 276.725C733.941 271.208 732.351 262.792 732.351 251.475H740.57C740.57 256.143 740.942 259.821 741.686 262.509C742.498 265.338 743.817 267.389 745.643 268.662C747.537 270.076 750.209 270.784 753.659 270.784C758.462 270.784 761.911 269.228 764.008 266.116C766.105 263.004 767.154 258.548 767.154 252.748C767.154 247.373 766.274 243.271 764.516 240.442C762.825 237.613 760.389 236.198 757.21 236.198H751.224C746.556 236.198 743.073 234.359 740.773 230.681C738.473 226.862 737.323 221.84 737.323 215.616C737.323 208.402 739.183 201.966 742.904 196.308C740.063 192.913 737.932 188.669 736.511 183.577C735.159 178.343 734.482 172.048 734.482 164.692C734.482 153.093 736.241 143.757 739.758 136.684C743.276 129.612 747.909 126.075 753.659 126.075C759.003 126.075 763.129 125.297 766.038 123.741C769.014 122.185 772.058 119.78 775.169 116.527L777.706 132.653ZM753.76 139.443C750.446 139.443 747.909 141.635 746.151 146.02C744.459 150.264 743.614 156.488 743.614 164.692C743.614 172.614 744.493 178.838 746.252 183.364C748.078 187.75 750.581 189.942 753.76 189.942C760.457 189.942 763.805 181.455 763.805 164.48C763.805 156.276 762.96 150.052 761.269 145.808C759.578 141.564 757.075 139.443 753.76 139.443Z" fill="#234E52"/>
<path d="M817.599 214.768C817.599 219.294 817.903 222.689 818.512 224.952C819.121 227.074 820.068 228.701 821.353 229.832L819.425 242.776C816.787 241.927 814.724 240.229 813.236 237.683C811.748 235.137 810.699 231.247 810.091 226.013C806.641 237.33 801.804 242.988 795.581 242.988C790.846 242.988 787.092 239.947 784.319 233.864C781.545 227.64 780.159 219.365 780.159 209.039C780.159 197.156 782.019 188.103 785.739 181.879C789.459 175.655 794.769 172.543 801.669 172.543H808.569V162.995C808.569 155.215 807.791 149.627 806.235 146.232C804.747 142.696 802.278 140.928 798.828 140.928C795.108 140.928 790.778 142.908 785.841 146.869L783.608 133.502C789.561 128.409 795.108 125.863 800.248 125.863C811.815 125.863 817.599 137.957 817.599 162.146V214.768ZM797.712 228.559C802.447 228.559 806.066 222.76 808.569 211.16V184.85H802.684C793.89 184.85 789.493 192.559 789.493 207.978C789.493 214.626 790.204 219.718 791.624 223.255C793.045 226.791 795.074 228.559 797.712 228.559Z" fill="#234E52"/>
<path d="M859.325 235.349C855.942 240.442 852.188 242.988 848.062 242.988C843.733 242.988 840.384 240.371 838.017 235.137C835.717 229.903 834.567 222.548 834.567 213.07V143.05H826.957V128.621H834.567V102.947L843.699 100.613V128.621H855.469L854.454 143.05H843.699V212.858C843.699 222.477 845.627 227.286 849.482 227.286C850.632 227.286 851.681 226.933 852.628 226.225C853.643 225.518 854.759 224.457 855.976 223.043L859.325 235.349Z" fill="#234E52"/>
<path d="M892.518 235.349C889.136 240.442 885.382 242.988 881.256 242.988C876.927 242.988 873.578 240.371 871.211 235.137C868.911 229.903 867.761 222.548 867.761 213.07V143.05H860.151V128.621H867.761V102.947L876.893 100.613V128.621H888.663L887.648 143.05H876.893V212.858C876.893 222.477 878.821 227.286 882.676 227.286C883.826 227.286 884.875 226.933 885.822 226.225C886.836 225.518 887.953 224.457 889.17 223.043L892.518 235.349Z" fill="#234E52"/>
<path d="M909.579 128.621V240.229H900.448V128.621H909.579ZM905.014 76C906.772 76 908.193 77.2024 909.275 79.6071C910.425 82.0119 911 84.9824 911 88.5188C911 92.0552 910.459 95.0257 909.377 97.4305C908.294 99.6937 906.84 100.825 905.014 100.825C903.255 100.825 901.801 99.6937 900.651 97.4305C899.568 95.0257 899.027 92.0552 899.027 88.5188C899.027 84.9824 899.568 82.0119 900.651 79.6071C901.801 77.2024 903.255 76 905.014 76Z" fill="#234E52"/>
<path d="M311.815 125.863C314.656 125.863 317.26 126.853 319.628 128.834C321.995 130.814 324.261 133.855 326.426 137.957L322.367 149.415C320.744 146.728 319.12 144.747 317.497 143.474C315.873 142.06 314.115 141.352 312.221 141.352C308.23 141.352 305.118 144.889 302.886 151.961C300.721 159.034 299.639 170.068 299.639 185.062C299.639 213.07 303.833 227.074 312.221 227.074C314.115 227.074 315.84 226.438 317.395 225.164C318.951 223.75 320.608 221.699 322.367 219.011L326.629 230.681C322.299 238.886 317.395 242.988 311.916 242.988C305.084 242.988 299.707 238.037 295.783 228.135C291.928 218.233 290 203.946 290 185.274C290 173.109 290.879 162.571 292.638 153.659C294.464 144.747 297.001 137.887 300.248 133.077C303.562 128.268 307.418 125.863 311.815 125.863Z" stroke="#234E52" stroke-width="4"/>
<path d="M372.204 181.03C372.204 184.001 372.137 187.325 372.001 191.003H340.953C341.224 204.017 342.475 213.424 344.708 219.223C346.94 224.882 349.984 227.711 353.839 227.711C356.274 227.711 358.439 226.933 360.333 225.377C362.295 223.821 364.324 221.274 366.421 217.738L370.479 228.984C365.474 238.32 359.792 242.988 353.433 242.988C346.466 242.988 341.055 237.966 337.199 227.923C333.411 217.738 331.517 203.522 331.517 185.274C331.517 167.026 333.344 152.598 336.996 141.989C340.649 131.238 345.722 125.863 352.216 125.863C358.642 125.863 363.58 130.672 367.03 140.291C370.479 149.769 372.204 163.349 372.204 181.03ZM363.377 175.302C363.377 151.961 359.69 140.291 352.317 140.291C348.935 140.291 346.263 143.262 344.302 149.203C342.34 155.003 341.224 164.48 340.953 177.636H363.377V175.302Z" stroke="#234E52" stroke-width="4"/>
<path d="M398.701 125.863C404.856 125.863 410.335 130.107 415.138 138.594L411.282 149.84C409.118 146.728 407.089 144.394 405.195 142.838C403.301 141.282 401.305 140.504 399.208 140.504C396.435 140.504 394.236 141.918 392.613 144.747C391.057 147.435 390.279 151.183 390.279 155.993C390.279 160.661 391.023 164.339 392.512 167.026C394.067 169.714 396.976 172.472 401.237 175.302C406.581 178.838 410.471 183.152 412.906 188.245C415.341 193.337 416.559 200.339 416.559 209.251C416.559 219.718 414.732 227.994 411.079 234.076C407.427 240.017 402.861 242.988 397.382 242.988C390.144 242.988 384.022 237.966 379.017 227.923L383.684 217.314C387.946 224.528 392.444 228.135 397.179 228.135C400.155 228.135 402.556 226.579 404.383 223.467C406.209 220.355 407.122 216.041 407.122 210.524C407.122 206.563 406.784 203.38 406.108 200.976C405.499 198.571 404.349 196.449 402.658 194.61C401.035 192.63 398.633 190.579 395.454 188.457C390.381 184.92 386.728 180.677 384.496 175.726C382.264 170.775 381.148 164.48 381.148 156.842C381.148 150.901 381.892 145.596 383.38 140.928C384.868 136.26 386.931 132.582 389.569 129.894C392.207 127.207 395.251 125.863 398.701 125.863Z" stroke="#234E52" stroke-width="4"/>
<path d="M460.789 214.768C460.789 219.294 461.093 222.689 461.702 224.952C462.311 227.074 463.258 228.701 464.543 229.832L462.615 242.776C459.977 241.927 457.914 240.229 456.426 237.683C454.938 235.137 453.89 231.247 453.281 226.013C449.831 237.33 444.994 242.988 438.771 242.988C434.036 242.988 430.282 239.947 427.509 233.864C424.735 227.64 423.349 219.365 423.349 209.039C423.349 197.156 425.209 188.103 428.929 181.879C432.65 175.655 437.96 172.543 444.859 172.543H451.759V162.995C451.759 155.215 450.981 149.627 449.425 146.232C447.937 142.696 445.468 140.928 442.018 140.928C438.298 140.928 433.969 142.908 429.031 146.869L426.799 133.502C432.751 128.409 438.298 125.863 443.439 125.863C455.006 125.863 460.789 137.957 460.789 162.146V214.768ZM440.902 228.559C445.637 228.559 449.256 222.76 451.759 211.16V184.85H445.874C437.08 184.85 432.683 192.559 432.683 207.978C432.683 214.626 433.394 219.718 434.814 223.255C436.235 226.791 438.264 228.559 440.902 228.559Z" stroke="#234E52" stroke-width="4"/>
<path d="M499.166 126.075C500.925 126.075 502.447 126.499 503.732 127.348L502.21 145.808C500.925 144.959 499.538 144.535 498.05 144.535C495.074 144.535 492.639 147.01 490.745 151.961C488.919 156.912 487.464 164.48 486.382 174.665V240.229H477.25V128.621H485.164L485.875 150.688C488.513 134.28 492.943 126.075 499.166 126.075Z" stroke="#234E52" stroke-width="4"/>
<path d="M570.966 240.229H561.936L559.805 174.241C558.858 144.676 558.351 124.307 558.283 113.132L544.89 223.679H536.062L522.06 113.132C522.128 125.439 521.756 145.95 520.944 174.665L518.915 240.229H509.986L515.363 94.2477H527.641L540.628 202.249L553.108 94.2477H565.588L570.966 240.229Z" stroke="#234E52" stroke-width="4"/>
<path d="M622.199 181.03C622.199 184.001 622.131 187.325 621.996 191.003H590.948C591.219 204.017 592.47 213.424 594.702 219.223C596.934 224.882 599.978 227.711 603.834 227.711C606.269 227.711 608.434 226.933 610.328 225.377C612.289 223.821 614.319 221.274 616.416 217.738L620.474 228.984C615.469 238.32 609.787 242.988 603.428 242.988C596.461 242.988 591.05 237.966 587.194 227.923C583.406 217.738 581.512 203.522 581.512 185.274C581.512 167.026 583.338 152.598 586.991 141.989C590.644 131.238 595.717 125.863 602.211 125.863C608.637 125.863 613.575 130.672 617.024 140.291C620.474 149.769 622.199 163.349 622.199 181.03ZM613.372 175.302C613.372 151.961 609.685 140.291 602.312 140.291C598.93 140.291 596.258 143.262 594.296 149.203C592.335 155.003 591.219 164.48 590.948 177.636H613.372V175.302Z" stroke="#234E52" stroke-width="4"/>
<path d="M658.741 125.863C663.002 125.863 666.317 128.834 668.684 134.775C671.119 140.574 672.337 148.637 672.337 158.963V240.229H663.205V161.297C663.205 154.083 662.63 148.92 661.48 145.808C660.33 142.555 658.571 140.928 656.204 140.928C651.74 140.928 647.681 147.576 644.028 160.873V240.229H634.896V128.621H642.811L643.521 145.172C647.647 132.299 652.72 125.863 658.741 125.863Z" stroke="#234E52" stroke-width="4"/>
<path d="M725.843 181.03C725.843 184.001 725.776 187.325 725.64 191.003H694.592C694.863 204.017 696.114 213.424 698.347 219.223C700.579 224.882 703.623 227.711 707.478 227.711C709.913 227.711 712.078 226.933 713.972 225.377C715.934 223.821 717.963 221.274 720.06 217.738L724.118 228.984C719.113 238.32 713.431 242.988 707.072 242.988C700.105 242.988 694.694 237.966 690.838 227.923C687.05 217.738 685.156 203.522 685.156 185.274C685.156 167.026 686.983 152.598 690.635 141.989C694.288 131.238 699.361 125.863 705.855 125.863C712.281 125.863 717.219 130.672 720.669 140.291C724.118 149.769 725.843 163.349 725.843 181.03ZM717.016 175.302C717.016 151.961 713.329 140.291 705.956 140.291C702.574 140.291 699.902 143.262 697.941 149.203C695.979 155.003 694.863 164.48 694.592 177.636H717.016V175.302Z" stroke="#234E52" stroke-width="4"/>
<path d="M777.706 132.653C774.797 135.058 770.299 136.26 764.211 136.26C769.893 142.201 772.734 151.961 772.734 165.541C772.734 176.716 771.043 185.769 767.661 192.701C764.346 199.49 759.814 202.885 754.065 202.885C751.9 202.885 749.939 202.178 748.18 200.763C746.286 203.593 745.339 207.2 745.339 211.585C745.339 218.233 747.571 221.557 752.035 221.557H759.036C764.313 221.557 768.507 224.386 771.618 230.045C774.73 235.561 776.285 242.634 776.285 251.263C776.285 261.731 774.358 269.935 770.502 275.876C766.646 281.959 760.998 285 753.557 285C745.846 285 740.367 282.242 737.12 276.725C733.941 271.208 732.351 262.792 732.351 251.475H740.57C740.57 256.143 740.942 259.821 741.686 262.509C742.498 265.338 743.817 267.389 745.643 268.662C747.537 270.076 750.209 270.784 753.659 270.784C758.462 270.784 761.911 269.228 764.008 266.116C766.105 263.004 767.154 258.548 767.154 252.748C767.154 247.373 766.274 243.271 764.516 240.442C762.825 237.613 760.389 236.198 757.21 236.198H751.224C746.556 236.198 743.073 234.359 740.773 230.681C738.473 226.862 737.323 221.84 737.323 215.616C737.323 208.402 739.183 201.966 742.904 196.308C740.063 192.913 737.932 188.669 736.511 183.577C735.159 178.343 734.482 172.048 734.482 164.692C734.482 153.093 736.241 143.757 739.758 136.684C743.276 129.612 747.909 126.075 753.659 126.075C759.003 126.075 763.129 125.297 766.038 123.741C769.014 122.185 772.058 119.78 775.169 116.527L777.706 132.653ZM753.76 139.443C750.446 139.443 747.909 141.635 746.151 146.02C744.459 150.264 743.614 156.488 743.614 164.692C743.614 172.614 744.493 178.838 746.252 183.364C748.078 187.75 750.581 189.942 753.76 189.942C760.457 189.942 763.805 181.455 763.805 164.48C763.805 156.276 762.96 150.052 761.269 145.808C759.578 141.564 757.075 139.443 753.76 139.443Z" stroke="#234E52" stroke-width="4"/>
<path d="M817.599 214.768C817.599 219.294 817.903 222.689 818.512 224.952C819.121 227.074 820.068 228.701 821.353 229.832L819.425 242.776C816.787 241.927 814.724 240.229 813.236 237.683C811.748 235.137 810.699 231.247 810.091 226.013C806.641 237.33 801.804 242.988 795.581 242.988C790.846 242.988 787.092 239.947 784.319 233.864C781.545 227.64 780.159 219.365 780.159 209.039C780.159 197.156 782.019 188.103 785.739 181.879C789.459 175.655 794.769 172.543 801.669 172.543H808.569V162.995C808.569 155.215 807.791 149.627 806.235 146.232C804.747 142.696 802.278 140.928 798.828 140.928C795.108 140.928 790.778 142.908 785.841 146.869L783.608 133.502C789.561 128.409 795.108 125.863 800.248 125.863C811.815 125.863 817.599 137.957 817.599 162.146V214.768ZM797.712 228.559C802.447 228.559 806.066 222.76 808.569 211.16V184.85H802.684C793.89 184.85 789.493 192.559 789.493 207.978C789.493 214.626 790.204 219.718 791.624 223.255C793.045 226.791 795.074 228.559 797.712 228.559Z" stroke="#234E52" stroke-width="4"/>
<path d="M859.325 235.349C855.942 240.442 852.188 242.988 848.062 242.988C843.733 242.988 840.384 240.371 838.017 235.137C835.717 229.903 834.567 222.548 834.567 213.07V143.05H826.957V128.621H834.567V102.947L843.699 100.613V128.621H855.469L854.454 143.05H843.699V212.858C843.699 222.477 845.627 227.286 849.482 227.286C850.632 227.286 851.681 226.933 852.628 226.225C853.643 225.518 854.759 224.457 855.976 223.043L859.325 235.349Z" stroke="#234E52" stroke-width="4"/>
<path d="M892.518 235.349C889.136 240.442 885.382 242.988 881.256 242.988C876.927 242.988 873.578 240.371 871.211 235.137C868.911 229.903 867.761 222.548 867.761 213.07V143.05H860.151V128.621H867.761V102.947L876.893 100.613V128.621H888.663L887.648 143.05H876.893V212.858C876.893 222.477 878.821 227.286 882.676 227.286C883.826 227.286 884.875 226.933 885.822 226.225C886.836 225.518 887.953 224.457 889.17 223.043L892.518 235.349Z" stroke="#234E52" stroke-width="4"/>
<path d="M909.579 128.621V240.229H900.448V128.621H909.579ZM905.014 76C906.772 76 908.193 77.2024 909.275 79.6071C910.425 82.0119 911 84.9824 911 88.5188C911 92.0552 910.459 95.0257 909.377 97.4305C908.294 99.6937 906.84 100.825 905.014 100.825C903.255 100.825 901.801 99.6937 900.651 97.4305C899.568 95.0257 899.027 92.0552 899.027 88.5188C899.027 84.9824 899.568 82.0119 900.651 79.6071C901.801 77.2024 903.255 76 905.014 76Z" stroke="#234E52" stroke-width="4"/>
<path d="M80.493 217.979L80.493 217.979L80.4889 217.991C79.4951 221.03 79.2263 223.884 79.7918 226.506C80.3608 229.144 81.7508 231.436 83.8834 233.368C86.2232 235.488 88.8126 236.827 91.6435 237.304C94.4471 237.777 97.3828 237.386 100.417 236.22L182.952 213.406C185.683 212.729 187.963 211.632 189.706 210.053C191.012 208.869 191.896 207.276 192.421 205.375C192.721 204.288 192.737 203.197 192.405 202.146C192.076 201.102 191.436 200.198 190.581 199.424C189.099 198.081 187.035 197.518 184.647 197.489C182.255 197.46 179.372 197.963 176.036 198.933C176.033 198.934 176.029 198.936 176.026 198.937L108.125 217.646L108.098 217.653L108.071 217.662C105.624 218.435 103.7 218.815 102.26 218.862C100.793 218.909 100.066 218.605 99.7271 218.298C99.343 217.95 99.0337 217.336 99.081 216.138C99.1292 214.914 99.5508 213.254 100.453 211.109L100.475 211.056L100.493 211.002L120.951 149.693C122.256 146.775 122.988 144.166 123.021 141.913C123.055 139.593 122.342 137.598 120.734 136.14C118.974 134.546 116.85 133.996 114.526 134.513C112.583 134.869 110.915 135.599 109.617 136.775C107.867 138.36 106.579 140.504 105.701 143.118L80.493 217.979ZM180.724 81.0137L180.7 80.9621L180.673 80.9124C179.661 79.079 178.391 77.4672 176.865 76.0846C175.214 74.5887 173.216 73.7779 170.939 73.6409C168.455 73.269 166.173 74.1138 164.173 75.926C162.36 77.5684 161.379 79.6499 161.274 82.0882C161.172 84.4645 161.903 87.0841 163.302 89.8995L207.052 184.397C208.485 187.64 210.045 190.131 211.788 191.711C213.32 193.099 215.236 193.945 217.46 194.301L217.503 194.308L217.546 194.312C220.122 194.571 222.457 193.703 224.481 191.869C225.997 190.496 226.647 188.515 226.68 186.219C226.713 183.94 226.145 181.204 225.068 178.059L225.044 177.989L225.013 177.921L180.724 81.0137ZM196.561 61.928L195.097 61.6047C194.609 63.8117 195.408 65.7622 197.13 67.322C198.684 68.7301 200.8 69.2643 203.224 69.1765C205.625 69.0895 208.473 68.3916 211.732 67.1622L279.586 48.4652L279.604 48.4604L279.622 48.4551C281.827 47.7891 283.566 47.4882 284.877 47.4882C286.198 47.4882 286.908 47.7905 287.284 48.1307L287.326 48.1689L287.371 48.2038C287.702 48.4607 288.036 48.9877 288.06 50.1817C288.085 51.3889 287.778 53.0657 287.043 55.2676L266.571 116.619C265.384 119.743 264.712 122.45 264.647 124.692C264.581 126.95 265.133 128.935 266.627 130.288C268.383 131.879 270.501 132.43 272.819 131.919C274.955 131.572 276.766 130.858 278.094 129.654C279.844 128.068 281.132 125.925 282.01 123.31L282.011 123.307L307.02 48.3601C308.311 45.4905 308.795 42.7178 308.323 40.0924C307.845 37.4333 306.417 35.089 304.178 33.0605C300.164 29.4238 294.496 28.688 287.593 30.3339L287.569 30.3397L287.544 30.3463L204.743 53.0269L204.706 53.037L204.67 53.0489C201.947 53.9459 199.65 55.2021 197.83 56.8513C196.425 58.1245 195.512 59.7249 195.097 61.6047L196.561 61.928Z" fill="white"/>
<path d="M80.493 217.979L80.493 217.979L80.4889 217.991C79.4951 221.03 79.2263 223.884 79.7918 226.506C80.3608 229.144 81.7508 231.436 83.8834 233.368C86.2232 235.488 88.8126 236.827 91.6435 237.304C94.4471 237.777 97.3828 237.386 100.417 236.22L182.952 213.406C185.683 212.729 187.963 211.632 189.706 210.053C191.012 208.869 191.896 207.276 192.421 205.375C192.721 204.288 192.737 203.197 192.405 202.146C192.076 201.102 191.436 200.198 190.581 199.424C189.099 198.081 187.035 197.518 184.647 197.489C182.255 197.46 179.372 197.963 176.036 198.933C176.033 198.934 176.029 198.936 176.026 198.937L108.125 217.646L108.098 217.653L108.071 217.662C105.624 218.435 103.7 218.815 102.26 218.862C100.793 218.909 100.066 218.605 99.7271 218.298C99.343 217.95 99.0337 217.336 99.081 216.138C99.1292 214.914 99.5508 213.254 100.453 211.109L100.475 211.056L100.493 211.002L120.951 149.693C122.256 146.775 122.988 144.166 123.021 141.913C123.055 139.593 122.342 137.598 120.734 136.14C118.974 134.546 116.85 133.996 114.526 134.513C112.583 134.869 110.915 135.599 109.617 136.775C107.867 138.36 106.579 140.504 105.701 143.118L80.493 217.979ZM180.724 81.0137L180.7 80.9621L180.673 80.9124C179.661 79.079 178.391 77.4672 176.865 76.0846C175.214 74.5887 173.216 73.7779 170.939 73.6409C168.455 73.269 166.173 74.1138 164.173 75.926C162.36 77.5684 161.379 79.6499 161.274 82.0882C161.172 84.4645 161.903 87.0841 163.302 89.8995L207.052 184.397C208.485 187.64 210.045 190.131 211.788 191.711C213.32 193.099 215.236 193.945 217.46 194.301L217.503 194.308L217.546 194.312C220.122 194.571 222.457 193.703 224.481 191.869C225.997 190.496 226.647 188.515 226.68 186.219C226.713 183.94 226.145 181.204 225.068 178.059L225.044 177.989L225.013 177.921L180.724 81.0137ZM196.561 61.928L195.097 61.6047C194.609 63.8117 195.408 65.7622 197.13 67.322C198.684 68.7301 200.8 69.2643 203.224 69.1765C205.625 69.0895 208.473 68.3916 211.732 67.1622L279.586 48.4652L279.604 48.4604L279.622 48.4551C281.827 47.7891 283.566 47.4882 284.877 47.4882C286.198 47.4882 286.908 47.7905 287.284 48.1307L287.326 48.1689L287.371 48.2038C287.702 48.4607 288.036 48.9877 288.06 50.1817C288.085 51.3889 287.778 53.0657 287.043 55.2676L266.571 116.619C265.384 119.743 264.712 122.45 264.647 124.692C264.581 126.95 265.133 128.935 266.627 130.288C268.383 131.879 270.501 132.43 272.819 131.919C274.955 131.572 276.766 130.858 278.094 129.654C279.844 128.068 281.132 125.925 282.01 123.31L282.011 123.307L307.02 48.3601C308.311 45.4905 308.795 42.7178 308.323 40.0924C307.845 37.4333 306.417 35.089 304.178 33.0605C300.164 29.4238 294.496 28.688 287.593 30.3339L287.569 30.3397L287.544 30.3463L204.743 53.0269L204.706 53.037L204.67 53.0489C201.947 53.9459 199.65 55.2021 197.83 56.8513C196.425 58.1245 195.512 59.7249 195.097 61.6047L196.561 61.928Z" stroke="#234E52" stroke-width="3"/>
<path d="M80.493 217.979L80.493 217.979L80.4889 217.991C79.4951 221.03 79.2263 223.884 79.7918 226.506C80.3608 229.144 81.7508 231.436 83.8834 233.368C86.2232 235.488 88.8126 236.827 91.6435 237.304C94.4471 237.777 97.3828 237.386 100.417 236.22L182.952 213.406C185.683 212.729 187.963 211.632 189.706 210.053C191.012 208.869 191.896 207.276 192.421 205.375C192.721 204.288 192.737 203.197 192.405 202.146C192.076 201.102 191.436 200.198 190.581 199.424C189.099 198.081 187.035 197.518 184.647 197.489C182.255 197.46 179.372 197.963 176.036 198.933C176.033 198.934 176.029 198.936 176.026 198.937L108.125 217.646L108.098 217.653L108.071 217.662C105.624 218.435 103.7 218.815 102.26 218.862C100.793 218.909 100.066 218.605 99.7271 218.298C99.343 217.95 99.0337 217.336 99.081 216.138C99.1292 214.914 99.5508 213.254 100.453 211.109L100.475 211.056L100.493 211.002L120.951 149.693C122.256 146.775 122.988 144.166 123.021 141.913C123.055 139.593 122.342 137.598 120.734 136.14C118.974 134.546 116.85 133.996 114.526 134.513C112.583 134.869 110.915 135.599 109.617 136.775C107.867 138.36 106.579 140.504 105.701 143.118L80.493 217.979ZM180.724 81.0137L180.7 80.9621L180.673 80.9124C179.661 79.079 178.391 77.4672 176.865 76.0846C175.214 74.5887 173.216 73.7779 170.939 73.6409C168.455 73.269 166.173 74.1138 164.173 75.926C162.36 77.5684 161.379 79.6499 161.274 82.0882C161.172 84.4645 161.903 87.0841 163.302 89.8995L207.052 184.397C208.485 187.64 210.045 190.131 211.788 191.711C213.32 193.099 215.236 193.945 217.46 194.301L217.503 194.308L217.546 194.312C220.122 194.571 222.457 193.703 224.481 191.869C225.997 190.496 226.647 188.515 226.68 186.219C226.713 183.94 226.145 181.204 225.068 178.059L225.044 177.989L225.013 177.921L180.724 81.0137ZM196.561 61.928L195.097 61.6047C194.609 63.8117 195.408 65.7622 197.13 67.322C198.684 68.7301 200.8 69.2643 203.224 69.1765C205.625 69.0895 208.473 68.3916 211.732 67.1622L279.586 48.4652L279.604 48.4604L279.622 48.4551C281.827 47.7891 283.566 47.4882 284.877 47.4882C286.198 47.4882 286.908 47.7905 287.284 48.1307L287.326 48.1689L287.371 48.2038C287.702 48.4607 288.036 48.9877 288.06 50.1817C288.085 51.3889 287.778 53.0657 287.043 55.2676L266.571 116.619C265.384 119.743 264.712 122.45 264.647 124.692C264.581 126.95 265.133 128.935 266.627 130.288C268.383 131.879 270.501 132.43 272.819 131.919C274.955 131.572 276.766 130.858 278.094 129.654C279.844 128.068 281.132 125.925 282.01 123.31L282.011 123.307L307.02 48.3601C308.311 45.4905 308.795 42.7178 308.323 40.0924C307.845 37.4333 306.417 35.089 304.178 33.0605C300.164 29.4238 294.496 28.688 287.593 30.3339L287.569 30.3397L287.544 30.3463L204.743 53.0269L204.706 53.037L204.67 53.0489C201.947 53.9459 199.65 55.2021 197.83 56.8513C196.425 58.1245 195.512 59.7249 195.097 61.6047L196.561 61.928Z" stroke="url(#paint1_linear)" stroke-width="3"/>
<defs>
<linearGradient id="paint0_linear" x1="68.6962" y1="132.804" x2="319.899" y2="132.804" gradientUnits="userSpaceOnUse">
<stop stop-color="white" stop-opacity="0"/>
<stop offset="0.817708" stop-color="#479EA6"/>
</linearGradient>
<linearGradient id="paint1_linear" x1="194" y1="31" x2="194" y2="236" gradientUnits="userSpaceOnUse">
<stop stop-color="#479EA6"/>
<stop offset="1" stop-color="white" stop-opacity="0"/>
</linearGradient>
</defs>
</svg>
